# Blender 3.6.4
# www.blender.org
mtllib axe.mtl
o SM_Logging_WoodAxe
v 0.009397 0.334332 -0.026651
v -0.004775 0.345532 -0.053704
v -0.016943 0.333993 -0.025592
v 0.008582 0.334907 -0.044379
v 0.008826 0.350548 -0.077523
v -0.018377 0.350548 -0.077523
v -0.018133 0.334907 -0.044379
v -0.017333 0.321539 0.046470
v -0.040822 0.322083 0.001218
v -0.017193 0.228405 0.046423
v -0.040780 0.227849 0.001309
v -0.017756 0.214984 -0.044007
v 0.031230 0.227849 0.001309
v 0.031272 0.322083 0.001218
v 0.008206 0.214984 -0.044007
v 0.013335 0.371438 -0.106607
v -0.004775 0.401377 -0.127343
v -0.022885 0.371438 -0.106607
v 0.007782 0.321539 0.046470
v 0.007643 0.228405 0.046423
v -0.004775 0.345553 0.107844
v 0.005920 0.341346 0.104090
v 0.004160 0.328499 0.072761
v -0.004775 0.323777 0.045402
v -0.015470 0.341346 0.104090
v -0.013957 0.329107 0.074759
v -0.022851 0.182215 -0.104239
v -0.004775 0.150994 -0.127414
v -0.004775 0.191661 -0.074183
v -0.018391 0.199654 -0.079271
v -0.004776 0.214260 -0.029535
v -0.013651 0.218021 -0.024568
v -0.027004 0.226728 0.000188
v -0.014668 0.227948 0.026743
v -0.004775 0.224535 0.029156
v -0.013705 0.221123 0.073140
v -0.004775 0.216298 0.077974
v -0.015669 0.208926 0.103595
v -0.004775 0.203430 0.108110
v -0.004775 0.336112 -0.161140
v -0.022832 0.250820 -0.128889
v -0.004775 0.237895 -0.169072
v 0.020435 0.324555 0.001304
v 0.004211 0.323882 0.029121
v -0.013886 0.323941 0.028736
v 0.013300 0.182215 -0.104239
v 0.013281 0.250820 -0.128889
v -0.029985 0.324555 0.001304
v 0.006118 0.208926 0.103595
v 0.004407 0.220697 0.074988
v 0.003046 0.227623 0.027616
v 0.008841 0.199654 -0.079271
v 0.004024 0.218000 -0.024582
v 0.017453 0.226728 0.000187
v -0.004775 0.277014 0.103250
v 0.005814 0.276433 0.098284
v -0.015364 0.276433 0.098284
v 0.007296 -0.252245 0.033590
v -0.011776 -0.357673 0.044363
v 0.005569 -0.348627 0.041217
v -0.012395 0.121020 0.025459
v 0.022805 0.346473 0.005421
v 0.010152 0.348885 -0.026172
v -0.030017 0.346473 0.004049
v -0.020409 0.347931 0.032579
v 0.026658 -0.372843 0.001345
v 0.000112 -0.400995 0.002588
v 0.008893 -0.379072 -0.039514
v -0.004187 -0.387771 -0.045790
v -0.023526 -0.372161 -0.038974
v -0.047258 -0.356758 0.001347
v -0.030510 -0.345086 0.039822
v -0.019453 0.348885 -0.025853
v 0.010858 0.347931 0.032579
v -0.035059 -0.261064 0.001293
v -0.013678 -0.157535 -0.025795
v -0.028257 -0.139088 0.001257
v -0.012973 -0.141779 0.026753
v 0.003624 -0.132326 0.027147
v -0.015264 -0.260613 0.034655
v 0.018917 -0.137935 0.001268
v 0.027072 -0.261762 0.001294
v 0.004547 -0.157757 -0.025774
v -0.004775 0.354383 0.033251
v -0.004775 0.354613 -0.028677
v -0.004608 -0.158835 -0.029764
vn -0.0000 0.9252 0.3796
vn 0.3857 0.8344 0.3937
vn 0.3857 0.8345 0.3936
vn -0.3857 0.8344 0.3937
vn -0.3857 0.8344 0.3936
vn -0.3857 0.8345 0.3936
vn -0.8864 -0.0000 0.4629
vn -0.8865 -0.0000 0.4628
vn -0.8865 -0.0001 0.4628
vn -0.8862 0.0001 0.4633
vn -0.8944 -0.0001 -0.4472
vn -0.8928 -0.0000 -0.4504
vn -0.8944 -0.0000 -0.4472
vn -0.8928 -0.0079 -0.4504
vn 0.8928 -0.0001 -0.4504
vn 0.8944 -0.0001 -0.4472
vn 0.8945 -0.0001 -0.4471
vn 0.8928 -0.0079 -0.4504
vn 0.5963 0.6199 0.5100
vn 0.5448 0.6632 0.5132
vn 0.5279 0.6775 0.5121
vn 0.6700 0.5518 0.4966
vn -0.5448 0.6632 0.5132
vn -0.5963 0.6199 0.5100
vn -0.5279 0.6775 0.5121
vn -0.6700 0.5517 0.4966
vn 0.5122 0.8589 0.0079
vn 0.4816 0.8763 0.0078
vn 0.5975 0.8019 -0.0000
vn 0.6237 0.7816 -0.0000
vn 0.8865 -0.0000 0.4628
vn 0.8865 -0.0000 0.4627
vn 0.2758 0.8903 -0.3624
vn 0.2208 0.8989 -0.3785
vn 0.4023 0.8677 -0.2919
vn 0.2517 0.9366 -0.2439
vn 0.1894 0.9549 -0.2287
vn -0.2201 0.8962 -0.3852
vn -0.2758 0.8903 -0.3624
vn -0.4014 0.8657 -0.2990
vn -0.2445 0.9383 -0.2445
vn -0.1890 0.9531 -0.2363
vn -0.5206 -0.6705 0.5285
vn -0.5115 -0.6846 0.5194
vn -0.5587 -0.6925 0.4564
vn -0.5597 -0.6859 0.4651
vn -0.3692 -0.8877 0.2750
vn -0.3777 -0.8736 0.3070
vn -0.1965 -0.9590 0.2044
vn -0.0710 -0.9849 0.1576
vn -0.0631 -0.9783 0.1973
vn -0.1337 -0.9909 0.0157
vn -0.3934 -0.9127 -0.1102
vn -0.3786 -0.9228 -0.0710
vn -0.3778 -0.8973 -0.2283
vn -0.3222 -0.8957 -0.3064
vn -0.2833 -0.8815 -0.3778
vn -0.2905 -0.8795 -0.3769
vn -0.8973 0.1653 -0.4093
vn -0.8724 0.2279 -0.4323
vn -0.9183 0.0942 -0.3845
vn -0.9219 -0.0315 -0.3861
vn -0.9131 -0.0708 -0.4015
vn -0.8949 -0.1805 -0.4082
vn -0.8846 -0.2054 -0.4186
vn 0.2204 0.9444 0.2440
vn 0.2210 0.9551 0.1973
vn 0.2122 0.9589 0.1886
vn 0.1256 0.9890 0.0785
vn 0.1649 0.9818 0.0942
vn -0.0000 0.9975 0.0708
vn -0.1256 0.9890 0.0785
vn 0.9131 -0.0708 -0.4015
vn 0.8949 -0.1805 -0.4082
vn 0.8846 -0.2054 -0.4186
vn 0.9219 -0.0315 -0.3861
vn 0.9183 0.0942 -0.3846
vn 0.8973 0.1653 -0.4092
vn 0.8724 0.2279 -0.4323
vn -0.4105 0.9077 0.0868
vn -0.5905 0.8032 0.0787
vn -0.5438 0.8355 0.0788
vn -0.2355 0.9578 0.1649
vn -0.2197 0.9572 0.1884
vn -0.1648 0.9810 0.1020
vn 0.3300 -0.8956 -0.2985
vn 0.2905 -0.8795 -0.3769
vn 0.3703 -0.8983 -0.2364
vn 0.4008 -0.9113 -0.0943
vn 0.4789 -0.8637 -0.1570
vn 0.3628 -0.9307 -0.0473
vn 0.5587 -0.6925 0.4564
vn 0.5115 -0.6846 0.5194
vn 0.5206 -0.6705 0.5285
vn 0.5597 -0.6858 0.4651
vn 0.3692 -0.8877 0.2750
vn 0.3777 -0.8736 0.3070
vn 0.1965 -0.9590 0.2044
vn 0.0787 -0.9844 0.1575
vn 0.0631 -0.9783 0.1972
vn 0.0393 -0.9985 0.0393
vn 0.0394 -0.9987 0.0314
vn -0.9960 0.0235 0.0863
vn -0.9999 -0.0000 0.0157
vn -1.0000 -0.0000 0.0079
vn -0.9962 -0.0156 0.0862
vn -0.9947 0.0079 0.1026
vn -0.9907 -0.0237 0.1337
vn -0.9889 0.0471 0.1413
vn 0.9999 -0.0000 0.0157
vn 0.9960 0.0235 0.0863
vn 1.0000 -0.0000 0.0079
vn 0.9962 -0.0156 0.0862
vn 0.9947 0.0079 0.1026
vn 0.9907 -0.0236 0.1337
vn 0.9889 0.0471 0.1413
vn 0.4155 -0.0077 0.9096
vn 0.3156 -0.0631 0.9468
vn 0.3062 -0.0628 0.9499
vn 0.4250 -0.0001 0.9052
vn 0.3624 0.0630 0.9299
vn 0.3556 0.0633 0.9325
vn -0.3156 -0.0631 0.9468
vn -0.4155 -0.0078 0.9096
vn -0.3062 -0.0628 0.9499
vn -0.4250 -0.0000 0.9052
vn -0.3622 0.0629 0.9300
vn -0.3556 0.0633 0.9325
vn 0.9910 -0.0000 0.1337
vn 0.9930 -0.0000 0.1182
vn 0.9980 0.0001 -0.0628
vn 0.9980 -0.0000 -0.0628
vn 0.9985 -0.0000 -0.0550
vn -0.9999 -0.0000 0.0158
vn -0.9930 -0.0000 0.1182
vn -0.9920 -0.0000 0.1260
vn -0.9980 -0.0000 -0.0628
vn -0.9980 -0.0000 -0.0629
vn -0.9985 -0.0000 -0.0550
vn 0.0157 0.0706 0.9974
vn -0.0237 0.1026 0.9944
vn 0.1421 0.0789 0.9867
vn 0.2125 -0.0472 0.9760
vn -0.2443 -0.0158 0.9696
vn 0.9259 -0.0314 -0.3766
vn 0.9259 -0.0314 -0.3764
vn 0.9259 -0.0313 -0.3766
vn 0.9283 -0.0394 -0.3697
vn -0.8964 -0.2045 0.3932
vn -0.8869 -0.1648 0.4316
vn -0.8607 -0.0632 0.5052
vn -0.9001 -0.3001 0.3158
vn 0.4954 -0.5820 0.6449
vn 0.5348 -0.5269 0.6606
vn 0.4499 -0.6393 0.6236
vn 0.5518 -0.4966 0.6700
vn 0.6857 -0.6936 -0.2207
vn 0.6547 -0.7179 -0.2367
vn 0.7076 -0.6763 -0.2046
vn 0.6165 -0.7429 -0.2608
vn -0.6642 -0.7354 -0.1344
vn -0.6693 -0.7323 -0.1260
vn -0.6781 -0.7254 -0.1183
vn -0.6513 -0.7455 -0.1413
vn -0.5967 -0.6438 0.4790
vn -0.5909 -0.6538 0.4726
vn -0.5671 -0.6853 0.4569
vn -0.6055 -0.6291 0.4875
vn -0.9244 -0.0869 -0.3714
vn -0.9154 -0.0079 -0.4025
vn -0.9267 -0.1649 -0.3377
vn -0.9068 0.0552 -0.4179
vn 0.8626 -0.2509 0.4392
vn 0.8594 -0.2286 0.4573
vn 0.8657 -0.2991 0.4014
vn 0.8528 -0.1816 0.4896
vn -0.8530 0.0948 -0.5133
vn -0.8366 0.1105 -0.5366
vn -0.8825 0.0709 -0.4649
vn -0.8726 0.0315 -0.4874
vn -0.8762 0.0158 -0.4816
vn -0.8815 -0.0000 -0.4722
vn -0.0393 0.0394 0.9985
vn -0.0393 0.0236 0.9989
vn -0.1260 -0.0000 0.9920
vn 0.0236 0.0628 0.9977
vn -0.1338 0.1182 0.9839
vn 0.8848 -0.0000 0.4660
vn 0.8641 0.0235 0.5028
vn 0.8639 0.0314 0.5027
vn 0.8582 0.0394 0.5118
vn 0.8619 0.0317 0.5061
vn 0.8764 -0.0000 0.4816
vn 0.8815 -0.0000 0.4722
vn 0.8782 -0.0000 -0.4783
vn 0.8782 0.0001 -0.4783
vn 0.8761 0.0236 -0.4815
vn 0.8671 0.0394 -0.4965
vn 0.8614 0.0474 -0.5058
vn 0.9051 0.0079 -0.4251
vn 0.9154 -0.0000 -0.4025
vn -0.8974 -0.0158 0.4408
vn -0.8623 0.0001 0.5063
vn -0.9049 -0.0236 0.4249
vn -0.8550 0.0313 0.5176
vn -0.8586 0.0236 0.5120
vn -0.8563 0.1178 0.5028
vn -0.8659 0.1101 0.4879
vn -0.9059 0.1339 0.4017
vn -0.9241 0.1185 0.3634
vn 0.3300 0.9428 0.0471
vn 0.3864 0.9147 0.1183
vn 0.2757 0.9612 -0.0000
vn 0.3233 0.9463 -0.0079
vn 0.3537 0.9354 -0.0000
vn -0.3373 0.9414 -0.0000
vn -0.3465 0.9372 0.0394
vn -0.3632 0.9317 -0.0000
vn -0.2996 0.9541 -0.0000
vn -0.3851 0.9195 0.0786
vn -0.0551 -0.0712 -0.9959
vn -0.1731 -0.0472 -0.9838
vn 0.0158 -0.1579 -0.9873
vn 0.0157 -0.0707 -0.9974
vn -0.0393 0.0314 -0.9987
vn -0.0078 -0.1415 0.9899
vn -0.0236 -0.1337 0.9907
vn -0.0157 -0.1414 0.9898
vn -0.0000 -0.1491 0.9888
vn 0.0237 -0.1503 0.9884
vn 0.4876 -0.0000 -0.8731
vn 0.4876 -0.0000 -0.8730
vn 0.3955 0.0396 -0.9176
vn 0.3928 0.0314 -0.9191
vn 0.3951 0.0633 -0.9165
vn -0.4879 0.0001 -0.8729
vn -0.3927 0.0393 -0.9188
vn -0.4876 -0.0000 -0.8730
vn -0.3927 0.0392 -0.9188
vn -0.2846 0.0632 -0.9566
vn -0.2846 0.0633 -0.9566
vt 0.385742 0.672607
vt 0.430176 0.703613
vt 0.374023 0.710938
vt 0.429443 0.654541
vt 0.483398 0.684326
vt 0.508301 0.087891
vt 0.450928 0.109375
vt 0.458984 0.061035
vt 0.298096 0.119141
vt 0.367920 0.135742
vt 0.286865 0.244141
vt 0.371826 0.231445
vt 0.442383 0.270508
vt 0.368164 0.522949
vt 0.351074 0.617188
vt 0.443848 0.493652
vt 0.528320 0.720215
vt 0.546875 0.781738
vt 0.558105 0.058594
vt 0.585449 0.000488
vt 0.281006 0.624512
vt 0.284668 0.499023
vt 0.180298 0.658447
vt 0.196045 0.639404
vt 0.241211 0.638428
vt 0.275391 0.660156
vt 0.215332 0.093750
vt 0.201660 0.072754
vt 0.259277 0.099609
vt 0.298828 0.082520
vt 0.540039 0.329590
vt 0.561035 0.391113
vt 0.474609 0.336426
vt 0.498047 0.295410
vt 0.402344 0.303223
vt 0.397461 0.288574
vt 0.363525 0.264160
vt 0.318848 0.270996
vt 0.311768 0.286133
vt 0.244019 0.251953
vt 0.229126 0.277832
vt 0.198608 0.255371
vt 0.180298 0.271973
vt 0.636719 0.103516
vt 0.572266 0.225586
vt 0.636719 0.262207
vt 0.344727 0.645020
vt 0.301758 0.654053
vt 0.295166 0.679443
vt 0.635254 0.529785
vt 0.548828 0.449219
vt 0.578613 0.391602
vt 0.566406 0.556885
vt 0.612305 0.686768
vt 0.408447 0.086914
vt 0.365723 0.106934
vt 0.324951 0.092285
vt 0.232178 0.459473
vt 0.198853 0.478027
vt 0.182617 0.459473
vt 0.241943 0.486816
vt 0.316162 0.460938
vt 0.319824 0.473633
vt 0.484863 0.433105
vt 0.502441 0.477051
vt 0.408691 0.456055
vt 0.401855 0.469727
vt 0.364746 0.489258
vt 0.180298 0.563477
vt 0.208008 0.562744
vt 0.190430 0.168457
vt 0.218140 0.172363
vt 0.651855 0.214355
vt 0.637207 0.057129
vt 0.665039 0.086426
vt 0.666992 0.974854
vt 0.650391 0.812012
vt 0.679688 0.979263
vt 0.123047 0.994545
vt 0.106750 0.999820
vt 0.111389 0.829834
vt 0.287598 0.782104
vt 0.231079 0.807495
vt 0.216553 0.782104
vt 0.278564 0.803833
vt 0.195312 0.905457
vt 0.279053 0.886108
vt 0.291016 0.909363
vt 0.234863 0.878479
vt 0.721191 0.061523
vt 0.719238 0.000488
vt 0.773438 0.051758
vt 0.794922 0.031738
vt 0.026031 0.074219
vt 0.079468 0.000488
vt 0.079163 0.095215
vt 0.000180 0.044434
vt 0.159668 0.076172
vt 0.132690 0.111816
vt 0.334717 0.829956
vt 0.297607 0.843262
vt 0.180298 0.850830
vt 0.213013 0.847168
vt 0.074463 0.234375
vt 0.032898 0.384766
vt 0.078186 0.417480
vt 0.016235 0.981705
vt 0.060303 0.996527
vt 0.637207 0.391602
vt 0.671387 0.408691
vt 0.124390 0.412109
vt 0.136597 0.231445
vt 0.179932 0.240234
vt 0.728516 0.976456
vt 0.714355 0.398438
vt 0.716309 0.212891
vt 0.772461 0.961639
vt 0.757324 0.363281
vt 0.230835 0.857056
vt 0.287842 0.824585
vt 0.788574 0.955383
vt 0.776855 0.360840
vt 0.000180 0.975372
vt 0.012611 0.381348
s 1
usemtl M_Metal_Steel.001
f 1/1/1 2/2/1 3/3/1
f 2/2/2 4/4/2 5/5/3
f 6/6/4 7/7/5 2/8/6
f 8/9/7 9/10/8 10/11/9
f 9/10/8 11/12/10 10/11/9
f 7/7/11 11/12/12 9/10/13
f 7/7/11 12/13/14 11/12/12
f 13/14/15 4/4/16 14/15/17
f 13/14/15 15/16/18 4/4/16
f 2/2/19 16/17/20 17/18/21
f 2/2/19 5/5/22 16/17/20
f 18/19/23 2/8/24 17/20/25
f 18/19/23 6/6/26 2/8/24
f 1/1/27 14/15/28 4/4/29
f 1/1/27 4/4/29 2/2/30
f 19/21/31 20/22/31 14/15/31
f 20/22/31 13/14/32 14/15/31
f 21/23/33 22/24/34 23/25/35
f 24/26/36 21/23/33 23/25/35
f 24/26/36 23/25/35 19/21/37
f 25/27/38 21/28/39 26/29/40
f 26/29/40 21/28/39 24/30/41
f 26/29/40 24/30/41 8/9/42
f 27/31/43 28/32/44 29/33/45
f 27/31/43 29/33/45 30/34/46
f 30/34/46 29/33/45 31/35/47
f 30/34/46 31/35/47 12/13/48
f 31/35/47 32/36/49 12/13/48
f 32/36/49 11/12/50 12/13/48
f 32/36/49 33/37/51 11/12/50
f 34/38/52 11/12/50 33/37/51
f 34/38/52 10/11/53 11/12/50
f 35/39/54 10/11/53 34/38/52
f 36/40/55 10/11/53 35/39/54
f 36/40/55 35/39/54 37/41/56
f 38/42/57 36/40/55 37/41/56
f 38/42/57 37/41/56 39/43/58
f 18/19/59 17/20/60 40/44/61
f 41/45/62 18/19/59 40/44/61
f 41/45/62 40/44/61 42/46/63
f 27/31/64 41/45/62 42/46/63
f 27/31/64 42/46/63 28/32/65
f 1/1/66 43/47/67 14/15/68
f 44/48/69 14/15/68 43/47/67
f 44/48/69 19/21/70 14/15/68
f 44/48/69 24/26/71 19/21/70
f 44/48/69 45/49/72 24/26/71
f 42/50/73 46/51/74 28/52/75
f 42/50/73 47/53/76 46/51/74
f 40/54/77 47/53/76 42/50/73
f 40/54/77 16/17/78 47/53/76
f 40/54/77 17/18/79 16/17/78
f 3/55/80 2/8/81 7/7/82
f 3/55/80 7/7/82 9/10/83
f 3/55/80 9/10/83 48/56/84
f 45/57/72 48/56/84 9/10/83
f 45/57/72 9/10/83 8/9/85
f 45/57/72 8/9/85 24/30/71
f 37/58/86 49/59/87 39/60/87
f 37/58/86 50/61/88 49/59/87
f 35/62/89 50/61/88 37/58/86
f 35/62/89 20/22/90 50/61/88
f 35/62/89 51/63/91 20/22/90
f 29/64/92 28/52/93 46/51/94
f 29/64/92 46/51/94 52/65/95
f 31/66/96 29/64/92 52/65/95
f 31/66/96 52/65/95 15/16/97
f 31/66/96 15/16/97 53/67/98
f 53/67/98 15/16/97 13/14/99
f 53/67/98 13/14/99 54/68/100
f 51/63/101 54/68/100 13/14/99
f 51/63/101 13/14/99 20/22/102
f 30/34/103 12/13/104 7/7/105
f 7/7/105 6/6/106 30/34/103
f 6/6/106 41/45/107 30/34/103
f 6/6/106 18/19/108 41/45/107
f 41/45/107 27/31/109 30/34/103
f 15/16/110 52/65/111 4/4/112
f 4/4/112 52/65/111 5/5/113
f 5/5/113 52/65/111 47/53/114
f 5/5/113 47/53/114 16/17/115
f 52/65/111 46/51/116 47/53/114
f 55/69/117 22/24/118 21/23/119
f 55/69/117 56/70/120 22/24/118
f 55/69/117 49/59/121 56/70/120
f 55/69/117 39/60/122 49/59/121
f 25/27/123 55/71/124 21/28/125
f 25/27/123 57/72/126 55/71/124
f 38/42/127 55/71/124 57/72/126
f 38/42/127 39/43/128 55/71/124
f 19/21/129 23/25/110 20/22/130
f 20/22/130 23/25/110 50/61/112
f 50/61/112 23/25/110 56/70/131
f 50/61/112 56/70/131 49/59/132
f 23/25/110 22/24/133 56/70/131
f 36/40/134 8/9/135 10/11/136
f 36/40/134 26/29/104 8/9/135
f 57/72/137 26/29/104 36/40/134
f 36/40/134 38/42/138 57/72/137
f 57/72/137 25/27/139 26/29/104
usemtl M_Color_Tawny.003
f 58/73/140 59/74/141 60/75/142
f 35/76/143 61/77/143 51/78/143
f 35/79/144 34/80/144 61/81/144
f 1/82/145 62/83/146 43/84/147
f 1/82/145 63/85/148 62/83/146
f 45/86/149 64/87/150 48/88/151
f 45/86/149 65/89/152 64/87/150
f 59/74/153 66/90/154 60/75/155
f 59/74/153 67/91/156 66/90/154
f 67/91/157 68/92/158 66/90/159
f 67/91/157 69/93/160 68/92/158
f 70/94/161 67/95/162 71/96/163
f 70/94/161 69/97/164 67/95/162
f 71/96/165 59/98/166 72/99/167
f 71/96/165 67/95/168 59/98/166
f 3/100/169 64/87/170 73/101/171
f 3/100/169 48/88/172 64/87/170
f 44/102/173 62/83/174 74/103/175
f 44/102/173 43/84/176 62/83/174
f 70/94/177 71/96/178 75/104/179
f 76/105/180 70/94/177 75/104/179
f 76/105/180 75/104/179 77/106/181
f 32/107/182 76/105/180 77/106/181
f 32/107/182 77/106/181 33/108/182
f 78/109/183 58/73/140 79/110/184
f 61/77/185 78/109/183 79/110/184
f 61/77/185 79/110/184 51/78/185
f 78/111/183 80/112/186 58/113/140
f 58/113/140 80/112/186 72/99/187
f 58/113/140 72/99/187 59/98/141
f 54/114/188 51/78/188 79/110/189
f 54/114/188 79/110/189 81/115/190
f 81/115/190 79/110/189 58/73/191
f 81/115/190 58/73/191 82/116/192
f 82/116/192 58/73/191 60/75/193
f 82/116/192 60/75/193 66/90/194
f 53/117/195 54/114/196 81/115/197
f 53/117/195 81/115/197 83/118/198
f 83/118/198 81/115/197 82/116/199
f 83/118/198 82/116/199 68/92/200
f 68/92/200 82/116/199 66/90/201
f 33/108/202 61/81/203 34/80/204
f 33/108/202 78/111/205 61/81/203
f 33/108/202 77/106/206 78/111/205
f 77/106/206 80/112/207 78/111/205
f 77/106/206 75/104/208 80/112/207
f 75/104/208 72/99/209 80/112/207
f 75/104/208 71/96/210 72/99/209
f 84/119/211 74/103/212 62/83/213
f 84/119/211 62/83/213 63/85/214
f 84/119/211 63/85/214 85/120/215
f 73/101/216 84/119/217 85/120/218
f 73/101/216 64/87/219 84/119/217
f 65/89/220 84/119/217 64/87/219
f 3/100/221 73/101/222 85/120/223
f 3/100/221 85/120/223 63/85/224
f 3/100/221 63/85/224 1/82/225
f 45/86/226 44/102/227 74/103/228
f 45/86/226 74/103/228 84/119/229
f 45/86/226 84/119/229 65/89/230
f 31/121/231 53/117/232 86/122/233
f 86/122/233 53/117/232 83/118/234
f 86/122/233 83/118/234 68/92/235
f 86/122/233 68/92/235 69/93/235
f 31/123/236 86/124/237 32/107/238
f 86/124/237 76/105/239 32/107/238
f 86/124/237 70/94/240 76/105/239
f 86/124/237 69/97/241 70/94/240
