# Blender 3.6.4
# www.blender.org
mtllib flashlight.mtl
o SM_Camping_Flashlight
v 0.000000 -0.069764 -0.284857
v -0.051402 -0.051402 -0.284857
v -0.066962 -0.000000 -0.284857
v 0.000000 0.069764 -0.284857
v -0.051402 0.051402 -0.284857
v 0.051402 -0.051402 -0.284857
v 0.066962 -0.000000 -0.284857
v 0.051402 0.051402 -0.284857
v 0.017472 0.055563 -0.105080
v 0.018119 0.045771 -0.071096
v 0.018121 0.055702 -0.036393
v 0.018119 0.045771 -0.036390
v 0.051402 0.051402 -0.293543
v 0.000000 0.069764 -0.293543
v -0.046737 -0.046737 -0.141091
v 0.000000 -0.083840 -0.220747
v 0.000000 -0.063433 -0.141091
v -0.061773 -0.061773 -0.220747
v 0.080472 -0.000000 -0.220747
v 0.060885 -0.000000 -0.141091
v 0.046737 -0.046737 -0.141091
v 0.061773 -0.061773 -0.220747
v -0.046737 0.046737 -0.141091
v -0.061773 0.061773 -0.220747
v -0.080472 -0.000000 -0.220747
v -0.060885 -0.000000 -0.141091
v 0.061773 0.061773 -0.220747
v -0.000000 0.083840 -0.220747
v 0.046737 0.046737 -0.141091
v -0.000000 0.063433 -0.141091
v -0.040888 -0.041169 0.226188
v 0.000000 -0.063433 0.220250
v -0.000000 -0.055774 0.226188
v -0.046737 -0.046737 0.220250
v 0.060885 0.000000 0.220250
v 0.046737 0.046737 0.220250
v 0.040888 0.041169 0.226188
v 0.053350 0.000000 0.226188
v -0.046737 0.046737 0.220250
v -0.060885 0.000000 0.220250
v -0.040888 0.041169 0.226188
v -0.053350 0.000000 0.226188
v 0.000000 0.063433 0.220250
v -0.000000 0.055775 0.226188
v 0.040888 -0.041169 0.226188
v 0.046737 -0.046737 0.220250
v -0.000000 0.053552 -0.071096
v -0.000000 0.053552 -0.036390
v -0.018119 0.045771 -0.071096
v -0.018119 0.045771 -0.036390
v -0.018121 0.055702 -0.036393
v -0.017472 0.055563 -0.105080
v -0.046737 0.046737 0.046522
v 0.000000 0.061908 -0.104776
v 0.046737 0.046737 0.046522
v 0.000000 0.063090 -0.036369
v -0.068117 0.067812 -0.227665
v -0.089230 -0.000000 -0.227665
v -0.061773 -0.061773 -0.300262
v -0.089230 -0.000000 -0.293543
v -0.080472 -0.000000 -0.300262
v -0.068117 -0.067812 -0.293543
v 0.089230 -0.000000 -0.227665
v 0.068117 0.067812 -0.227665
v -0.034838 0.035077 0.263639
v -0.045456 0.000000 0.263639
v 0.051402 -0.051402 -0.293543
v 0.000000 -0.083840 -0.300262
v 0.000000 -0.069764 -0.293543
v 0.061773 -0.061773 -0.300262
v 0.061773 0.061773 -0.300262
v 0.080472 -0.000000 -0.300262
v 0.066962 -0.000000 -0.293543
v -0.051402 -0.051402 -0.293543
v -0.066962 -0.000000 -0.293543
v -0.061773 0.061773 -0.300262
v 0.000000 0.083840 -0.300262
v -0.051402 0.051402 -0.293543
v 0.034838 -0.035077 0.263639
v -0.000000 -0.047522 0.263639
v -0.068117 -0.067812 -0.227665
v 0.000000 -0.092598 -0.227665
v 0.045456 0.000000 0.263639
v 0.034838 0.035077 0.263639
v -0.000000 0.092598 -0.227665
v -0.034838 -0.035077 0.263639
v -0.000000 0.047522 0.263639
v 0.000000 -0.092598 -0.293543
v -0.068117 0.067812 -0.293543
v 0.000000 0.092598 -0.293543
v 0.068117 0.067812 -0.293543
v 0.089230 -0.000000 -0.293543
v 0.068117 -0.067812 -0.227665
v 0.068117 -0.067812 -0.293543
v -0.013514 0.061117 -0.101392
v -0.013514 0.061117 -0.075507
v 0.013513 0.061117 -0.075507
v -0.000000 0.066920 -0.075507
v -0.000000 0.066920 -0.101392
v 0.013513 0.061117 -0.101392
vn -0.0000 -0.0000 -1.0000
vn -0.9995 -0.0315 0.0079
vn -1.0000 -0.0078 -0.0000
vn -1.0000 0.0003 -0.0000
vn -0.3370 -0.9415 -0.0000
vn -0.3371 -0.9415 -0.0000
vn -0.3308 -0.9137 0.2363
vn 0.9311 -0.2840 0.2288
vn -0.9311 0.2840 0.2288
vn -0.9311 0.2841 0.2288
vn 0.3308 0.9136 0.2363
vn 0.3308 0.9137 0.2363
vn -0.3308 0.9137 0.2363
vn 0.3308 -0.9137 0.2363
vn -0.9311 -0.2840 0.2288
vn -0.9311 -0.2841 0.2288
vn 0.9311 0.2840 0.2288
vn 0.9311 0.2841 0.2288
vn -0.2127 -0.5988 0.7721
vn -0.2128 -0.5988 0.7721
vn -0.2126 -0.5988 0.7721
vn 0.6076 0.1815 0.7733
vn 0.6076 0.1815 0.7732
vn -0.6076 0.1815 0.7733
vn -0.6076 0.1815 0.7732
vn -0.2128 0.5988 0.7721
vn -0.2127 0.5988 0.7721
vn 0.2128 -0.5988 0.7721
vn 0.2127 -0.5988 0.7721
vn 0.2129 0.5988 0.7721
vn 0.2126 0.5988 0.7721
vn 0.2127 0.5988 0.7721
vn 0.6076 -0.1815 0.7732
vn 0.6076 -0.1815 0.7733
vn -0.6076 -0.1816 0.7732
vn -0.6076 -0.1815 0.7732
vn -0.6076 -0.1815 0.7733
vn 0.3930 0.9196 -0.0000
vn 0.3930 0.9195 -0.0000
vn -0.3930 0.9196 -0.0000
vn -0.3929 0.9196 -0.0000
vn 1.0000 -0.0078 0.0001
vn 1.0000 0.0002 -0.0000
vn 0.9995 -0.0315 0.0078
vn 0.9995 -0.0314 0.0078
vn 0.9570 -0.2900 -0.0000
vn 0.9569 -0.2903 -0.0000
vn 0.9571 -0.2897 -0.0000
vn 0.9569 -0.2904 -0.0000
vn -0.3373 -0.9414 -0.0000
vn 0.3370 -0.9415 -0.0000
vn 0.3373 -0.9414 -0.0000
vn 0.3371 -0.9415 -0.0000
vn -0.9570 -0.2900 -0.0000
vn -0.9571 -0.2897 -0.0000
vn -0.9569 -0.2903 -0.0000
vn -0.9569 -0.2904 -0.0000
vn -0.9569 0.2903 -0.0000
vn -0.9571 0.2897 -0.0000
vn -0.9570 0.2902 -0.0000
vn 0.3396 0.9397 0.0395
vn 0.3396 0.9398 0.0395
vn 0.3162 0.9486 0.0158
vn 0.3161 0.9484 0.0237
vn 0.3303 0.9437 -0.0157
vn 0.3304 0.9439 -0.0000
vn 0.3631 0.9314 -0.0237
vn 0.3373 0.9414 -0.0000
vn 0.9571 0.2897 -0.0000
vn 0.9570 0.2900 -0.0000
vn 0.9570 0.2902 -0.0000
vn 0.9569 0.2904 -0.0000
vn -0.3396 0.9397 0.0395
vn -0.3162 0.9486 0.0158
vn -0.3161 0.9484 0.0236
vn -0.3303 0.9437 -0.0157
vn -0.3303 0.9439 -0.0000
vn -0.3631 0.9315 -0.0236
vn -0.3373 0.9414 -0.0000
vn -0.0000 0.0001 -1.0000
vn 0.0001 -0.0003 -1.0000
vn -0.0000 -0.0001 -1.0000
vn -0.6202 0.1884 0.7615
vn -0.6067 -0.1891 -0.7721
vn 0.6202 0.1884 0.7615
vn -0.9383 0.2839 0.1974
vn -0.9384 0.2839 0.1971
vn -0.9382 0.2840 0.1977
vn -0.1500 0.4263 -0.8921
vn -0.4401 -0.1336 -0.8880
vn -0.4401 -0.1336 -0.8879
vn 0.4400 0.1336 -0.8880
vn 0.4401 0.1336 -0.8880
vn 0.1500 -0.4263 -0.8921
vn 0.9570 -0.2902 -0.0000
vn 0.3372 0.9414 -0.0000
vn 0.3371 0.9415 -0.0000
vn 0.3370 0.9415 -0.0000
vn -0.3371 0.9415 -0.0000
vn -0.3372 0.9414 -0.0000
vn -0.1500 -0.4263 -0.8921
vn 0.1500 0.4263 -0.8921
vn 0.1499 0.4263 -0.8921
vn 0.3307 -0.9213 0.2047
vn 0.3372 -0.9414 -0.0000
vn -0.6202 -0.1884 0.7615
vn -0.2208 -0.6150 0.7570
vn 0.9383 -0.2839 0.1973
vn 0.9382 -0.2840 0.1977
vn 0.9383 -0.2839 0.1974
vn 0.9569 0.2903 -0.0000
vn -0.9570 -0.2902 -0.0000
vn 0.4401 -0.1336 -0.8880
vn 0.4400 -0.1336 -0.8880
vn -0.4400 0.1336 -0.8880
vn -0.4401 0.1336 -0.8880
vn 0.9383 0.2839 0.1973
vn 0.9384 0.2839 0.1972
vn 0.9383 0.2839 0.1974
vn 0.9382 0.2840 0.1977
vn 0.2208 0.6150 0.7570
vn -0.2208 0.6150 0.7570
vn -0.3307 -0.9213 0.2047
vn -0.3306 -0.9213 0.2046
vn -0.9382 -0.2840 0.1977
vn -0.9383 -0.2839 0.1973
vn 0.3306 0.9213 0.2046
vn 0.3307 0.9213 0.2047
vn -0.3307 0.9213 0.2047
vn -0.3306 0.9213 0.2046
vn -0.3398 -0.9405 -0.0000
vn -0.3399 0.9405 -0.0000
vn -0.3398 0.9405 -0.0000
vn 0.9541 0.2995 -0.0000
vn 0.9541 0.2996 -0.0000
vn -0.9541 0.2995 -0.0000
vn -0.9541 0.2996 -0.0000
vn 0.3398 0.9405 -0.0000
vn 0.3399 0.9405 -0.0000
vn 0.3398 -0.9405 -0.0000
vn 0.3399 -0.9405 -0.0000
vn -0.9541 -0.2995 -0.0000
vn -0.9541 -0.2996 -0.0000
vn 0.9541 -0.2996 -0.0000
vn 0.9541 -0.2995 -0.0000
vn 0.2205 -0.6064 -0.7640
vn 0.2205 -0.6064 -0.7639
vn 0.2208 -0.6150 0.7570
vn -0.2205 -0.6064 -0.7640
vn -0.2205 -0.6064 -0.7639
vn 0.6067 -0.1891 -0.7721
vn 0.2205 0.6065 -0.7639
vn 0.2205 0.6064 -0.7639
vn 0.2205 0.6064 -0.7640
vn -0.2205 0.6064 -0.7639
vn -0.2205 0.6064 -0.7640
vn 0.6067 0.1891 -0.7721
vn 0.6202 -0.1884 0.7615
vn -0.9238 0.3790 0.0553
vn -0.6067 0.1891 -0.7721
vn 0.1335 0.3063 0.9425
vn -0.3930 0.9195 -0.0000
vn -0.3931 0.9195 -0.0000
vn -0.1335 0.3063 0.9425
vn 0.2277 0.5967 -0.7695
vn 0.2277 0.5967 -0.7694
vn -0.2277 0.5967 -0.7695
vn 0.9238 0.3790 0.0553
vn -0.0000 -0.0000 1.0000
vt 0.096680 0.799805
vt 0.170288 0.826172
vt 0.192627 0.899780
vt 0.096680 0.999766
vt 0.170288 0.973450
vt 0.022537 0.826172
vt 0.096191 0.799805
vt 0.000234 0.899780
vt 0.096191 0.999766
vt 0.022537 0.973450
vt 0.326416 0.807617
vt 0.271240 0.815796
vt 0.221924 0.799805
vt 0.233154 0.815063
vt 0.817871 0.581299
vt 0.793945 0.503906
vt 0.807129 0.504150
vt 0.806641 0.583008
vt 0.527832 0.099121
vt 0.640137 0.194336
vt 0.522949 0.171875
vt 0.652832 0.100098
vt 0.653809 0.399902
vt 0.533691 0.379883
vt 0.538086 0.306641
vt 0.663086 0.306152
vt 0.545410 0.699707
vt 0.668945 0.699707
vt 0.658203 0.793945
vt 0.540039 0.772461
vt 0.666992 0.500488
vt 0.657227 0.596924
vt 0.542969 0.500000
vt 0.538574 0.575684
vt 0.661133 0.608154
vt 0.543457 0.624756
vt 0.534668 0.228516
vt 0.656738 0.209961
vt 0.643066 0.005859
vt 0.523926 0.023438
vt 0.657227 0.410645
vt 0.540039 0.427734
vt 0.012245 0.094727
vt 0.012657 0.162109
vt 0.000234 0.155762
vt 0.025757 0.094727
vt 0.013451 0.430664
vt 0.025818 0.500000
vt 0.011765 0.500000
vt 0.000234 0.436523
vt 0.027954 0.683105
vt 0.013275 0.751953
vt 0.013878 0.682617
vt 0.000234 0.745850
vt 0.017776 0.612061
vt 0.004452 0.618164
vt 0.012489 0.301270
vt 0.000234 0.238770
vt 0.012970 0.232422
vt 0.026276 0.301270
vt 0.000234 0.563965
vt 0.013336 0.570312
vt 0.013016 0.369141
vt 0.000234 0.363281
vt 0.000234 0.034180
vt 0.012825 0.028320
vt 0.270508 0.844360
vt 0.215576 0.838379
vt 0.269531 0.870728
vt 0.229858 0.869019
vt 0.214844 0.883850
vt 0.323486 0.883850
vt 0.268555 0.690918
vt 0.485352 0.572510
vt 0.487061 0.545410
vt 0.385742 0.543457
vt 0.265869 0.500000
vt 0.385742 0.571777
vt 0.491455 0.652832
vt 0.490967 0.625732
vt 0.390137 0.651367
vt 0.390869 0.622803
vt 0.193115 0.836670
vt 0.684082 0.699951
vt 0.672852 0.799316
vt 0.762207 0.101562
vt 0.764648 0.000488
vt 0.780273 0.007324
vt 0.747070 0.101074
vt 0.670898 0.405762
vt 0.681641 0.500488
vt 0.850586 0.367188
vt 0.815918 0.307617
vt 0.888672 0.330566
vt 0.872070 0.283691
vt 0.789062 0.308594
vt 0.786621 0.221680
vt 0.803711 0.231445
vt 0.767578 0.307617
vt 0.771484 0.504639
vt 0.788574 0.415039
vt 0.806641 0.423340
vt 0.785645 0.101074
vt 0.799316 0.016602
vt 0.773438 0.704834
vt 0.791016 0.614746
vt 0.795898 0.705322
vt 0.809082 0.624512
vt 0.801270 0.384766
vt 0.801758 0.308594
vt 0.812988 0.382812
vt 0.809082 0.705322
vt 0.820312 0.781738
vt 0.808105 0.783569
vt 0.810059 0.186523
vt 0.796875 0.187988
vt 0.799805 0.101074
vt 0.815430 0.233398
vt 0.789551 0.592285
vt 0.777344 0.197754
vt 0.846680 0.603027
vt 0.867188 0.677246
vt 0.820801 0.658447
vt 0.905273 0.640625
vt 0.820312 0.626221
vt 0.657227 0.000977
vt 0.667969 0.100098
vt 0.654297 0.200195
vt 0.939941 0.700439
vt 0.883789 0.724121
vt 0.811035 0.018066
vt 0.819336 0.425293
vt 0.790527 0.791748
vt 0.784180 0.392578
vt 0.867188 0.771240
vt 0.939941 0.748047
vt 0.905273 0.807861
vt 0.671875 0.602539
vt 0.674805 0.603027
vt 0.935059 0.218262
vt 0.888672 0.236816
vt 0.909180 0.162598
vt 0.850586 0.200195
vt 0.815918 0.259766
vt 0.846680 0.845459
vt 0.820801 0.789917
vt 0.909180 0.405273
vt 0.935059 0.349609
vt 0.761719 0.204590
vt 0.759277 0.705078
vt 0.776855 0.607666
vt 0.757324 0.504883
vt 0.773438 0.408203
vt 0.776367 0.797974
vt 0.775391 0.599365
vt 0.678223 0.306641
vt 0.670898 0.205078
vt 0.772949 0.214355
vt 0.753906 0.307617
vt 0.770508 0.398926
vt 0.668457 0.405273
vt 0.317383 0.868896
vt 0.284424 0.858887
vt 0.285400 0.829712
vt 0.288574 0.844604
vt 0.319580 0.845703
vt 0.319336 0.822266
vt 0.331543 0.846191
s 1
usemtl M_Color_BabyBlue
f 1/1/1 2/2/1 3/3/1
f 3/3/1 4/4/1 1/1/1
f 4/4/1 3/3/1 5/5/1
f 6/6/1 1/7/1 7/8/1
f 4/9/1 7/8/1 1/7/1
f 7/8/1 4/9/1 8/10/1
usemtl M_Color_Yellow
f 9/11/2 10/12/2 11/13/3
f 11/13/3 10/12/2 12/14/4
f 4/15/5 13/16/5 8/17/6
f 13/16/5 4/15/5 14/18/5
f 15/19/7 16/20/7 17/21/7
f 16/20/7 15/19/7 18/22/7
f 19/23/8 20/24/8 21/25/8
f 19/23/8 21/25/8 22/26/8
f 23/27/9 24/28/9 25/29/10
f 23/27/9 25/29/10 26/30/10
f 27/31/11 28/32/12 29/33/12
f 28/32/12 30/34/12 29/33/12
f 24/28/13 23/27/13 28/35/13
f 28/35/13 23/27/13 30/36/13
f 17/37/14 16/38/14 21/25/14
f 16/38/14 22/26/14 21/25/14
f 18/22/15 15/19/15 25/39/15
f 26/40/16 25/39/15 15/19/15
f 29/33/17 19/41/18 27/31/18
f 19/41/18 29/33/17 20/42/17
f 31/43/19 32/44/20 33/45/19
f 32/44/20 31/43/19 34/46/21
f 35/47/22 36/48/22 37/49/22
f 35/47/22 37/49/22 38/50/23
f 39/51/24 40/52/25 41/53/24
f 41/53/24 40/52/25 42/54/25
f 41/53/26 43/55/27 39/51/27
f 43/55/27 41/53/26 44/56/27
f 45/57/28 33/58/29 32/59/29
f 32/59/29 46/60/29 45/57/28
f 44/61/30 37/49/31 43/62/32
f 36/48/32 43/62/32 37/49/31
f 45/57/33 35/63/34 38/64/34
f 46/60/33 35/63/34 45/57/33
f 31/43/35 42/65/36 40/66/37
f 40/66/37 34/46/36 31/43/35
f 47/67/38 48/68/38 10/12/38
f 10/12/38 48/68/38 12/14/39
f 49/69/40 50/70/40 47/67/40
f 47/67/40 50/70/40 48/68/41
f 51/71/42 50/70/43 49/69/44
f 51/71/42 49/69/44 52/72/45
f 20/24/46 35/63/47 46/60/48
f 20/24/46 46/60/48 21/25/49
f 32/44/6 15/19/5 17/21/50
f 15/19/5 32/44/6 34/46/50
f 21/25/51 46/60/52 32/59/53
f 32/59/53 17/37/52 21/25/51
f 26/40/54 34/46/55 40/66/56
f 34/46/55 26/40/54 15/19/57
f 40/52/58 39/51/59 53/73/59
f 26/30/60 40/52/58 53/73/59
f 26/30/60 53/73/59 23/27/59
f 30/34/61 54/74/62 9/75/63
f 9/75/63 29/33/64 30/34/61
f 11/76/65 29/33/64 9/75/63
f 29/33/64 11/76/65 55/77/66
f 11/76/65 56/78/67 55/77/66
f 55/77/66 56/78/67 43/62/68
f 55/77/66 43/62/68 36/48/68
f 55/77/69 36/48/70 35/47/71
f 55/77/69 35/47/71 20/42/72
f 29/33/71 55/77/69 20/42/72
f 30/36/73 52/79/74 54/80/73
f 23/27/75 52/79/74 30/36/73
f 23/27/75 51/81/76 52/79/74
f 23/27/75 53/73/77 51/81/76
f 51/81/76 53/73/77 56/82/78
f 56/82/78 53/73/77 43/55/79
f 43/55/79 53/73/77 39/51/79
f 51/71/80 48/68/1 50/70/81
f 51/71/80 56/83/1 48/68/1
f 11/13/82 48/68/1 56/83/1
f 48/68/1 11/13/82 12/14/1
usemtl M_Color_Black
f 57/84/83 58/85/83 24/28/83
f 24/28/83 58/85/83 25/29/83
f 59/86/84 60/87/84 61/88/84
f 62/89/84 60/87/84 59/86/84
f 63/90/85 64/91/85 27/31/85
f 63/90/85 27/31/85 19/41/85
f 41/92/86 42/93/87 65/94/88
f 65/94/88 42/93/87 66/95/87
f 67/96/89 68/97/89 69/98/89
f 68/97/89 67/96/89 70/99/89
f 71/100/90 72/101/90 13/16/91
f 13/16/91 72/101/90 73/102/90
f 74/103/92 61/88/93 75/104/93
f 59/86/92 61/88/93 74/103/92
f 76/105/94 77/106/94 78/107/94
f 77/106/94 14/108/94 78/107/94
f 73/109/60 6/110/59 7/111/59
f 6/110/59 73/109/60 67/96/59
f 5/112/46 3/113/95 78/107/95
f 78/107/95 3/113/95 75/114/95
f 74/103/96 1/115/96 69/116/97
f 1/115/96 74/103/96 2/117/98
f 69/98/99 6/110/100 67/96/100
f 6/110/100 69/98/99 1/118/79
f 13/16/101 77/119/101 71/100/101
f 77/119/101 13/16/101 14/18/101
f 74/103/102 69/116/102 68/120/103
f 68/120/103 59/86/102 74/103/102
f 33/121/104 79/122/104 80/123/104
f 79/122/104 33/121/104 45/124/104
f 78/107/52 14/108/105 5/112/52
f 4/125/53 5/112/52 14/108/105
f 18/22/106 25/39/106 58/126/106
f 58/126/106 81/127/106 18/22/106
f 18/22/107 82/128/107 16/20/107
f 82/128/107 18/22/107 81/127/107
f 38/129/108 83/130/109 79/122/108
f 38/129/108 79/122/108 45/124/110
f 3/131/69 2/117/71 75/104/70
f 75/104/70 2/117/71 74/103/111
f 13/16/54 7/132/54 8/17/112
f 7/132/54 13/16/54 73/102/55
f 61/133/113 76/105/113 78/107/113
f 61/133/113 78/107/113 75/114/114
f 72/134/115 70/99/116 67/96/115
f 72/134/115 67/96/115 73/109/116
f 84/135/117 38/136/118 37/137/119
f 38/136/118 84/135/117 83/130/120
f 28/32/121 27/31/121 85/138/121
f 64/91/121 85/138/121 27/31/121
f 24/28/122 85/139/122 57/84/122
f 85/139/122 24/28/122 28/35/122
f 80/140/123 86/141/124 33/142/123
f 86/141/124 31/143/123 33/142/123
f 42/144/125 86/141/125 66/95/126
f 86/141/125 42/144/125 31/143/125
f 44/145/127 84/135/128 37/137/128
f 84/135/128 44/145/127 87/146/128
f 44/147/129 41/92/129 65/94/130
f 44/147/129 65/94/130 87/148/129
f 82/128/131 81/127/131 62/89/131
f 82/128/131 62/89/131 88/149/131
f 89/150/132 85/139/133 90/151/133
f 85/139/133 89/150/132 57/84/133
f 91/152/134 64/91/134 63/90/134
f 91/152/134 63/90/134 92/153/135
f 89/150/136 58/85/137 57/84/137
f 58/85/137 89/150/136 60/154/136
f 90/155/138 64/91/138 91/152/138
f 64/91/138 90/155/138 85/138/139
f 93/156/140 82/157/141 88/158/140
f 93/156/140 88/158/140 94/159/141
f 60/87/142 81/127/143 58/126/142
f 81/127/143 60/87/142 62/89/143
f 92/160/144 63/161/145 93/156/144
f 92/160/144 93/156/144 94/159/144
f 70/99/146 88/158/147 68/97/147
f 88/158/147 70/99/146 94/159/147
f 22/26/148 16/38/148 82/157/148
f 82/157/148 93/156/148 22/26/148
f 59/86/149 68/120/150 88/149/150
f 88/149/150 62/89/149 59/86/149
f 70/99/151 72/134/151 92/160/151
f 92/160/151 94/159/151 70/99/151
f 71/100/152 90/155/153 91/152/154
f 90/155/153 71/100/152 77/119/153
f 77/106/155 76/105/156 90/151/155
f 89/150/156 90/151/155 76/105/156
f 91/152/157 92/153/157 71/100/157
f 71/100/157 92/153/157 72/101/157
f 22/26/158 63/161/158 19/23/158
f 93/156/158 63/161/158 22/26/158
f 52/72/159 49/69/159 95/162/159
f 95/162/159 49/69/159 96/163/159
f 60/154/160 89/150/160 76/105/160
f 60/154/160 76/105/160 61/133/160
f 97/164/161 98/165/161 47/67/161
f 97/164/161 47/67/161 10/12/161
f 95/162/162 96/163/40 99/166/162
f 99/166/162 96/163/40 98/165/163
f 99/166/38 98/165/38 100/167/38
f 100/167/38 98/165/38 97/164/38
f 49/69/164 47/67/164 96/163/164
f 98/165/164 96/163/164 47/67/164
f 9/11/165 54/168/165 100/167/166
f 99/166/165 100/167/166 54/168/165
f 54/168/167 52/72/167 95/162/167
f 95/162/167 99/166/167 54/168/167
f 10/12/168 100/167/168 97/164/168
f 100/167/168 10/12/168 9/11/168
f 87/148/169 65/94/169 66/95/169
f 66/95/169 80/140/169 87/148/169
f 80/140/169 66/95/169 86/141/169
f 84/135/169 87/146/169 83/130/169
f 80/123/169 83/130/169 87/146/169
f 83/130/169 80/123/169 79/122/169
