# Blender 3.6.4
# www.blender.org
mtllib marshmallow_stick.mtl
o SM_Camping_Marshmellow
v 0.011035 0.456733 -0.023336
v 0.030929 0.486284 -0.020668
v 0.025245 0.451422 -0.010789
v -0.017094 0.455005 -0.016529
v -0.032768 0.457162 0.005382
v -0.030359 0.497225 -0.008541
v 0.042567 0.540492 -0.001332
v 0.047881 0.534150 0.030339
v 0.048532 0.505858 0.003491
v 0.044162 0.490141 0.038856
v 0.041726 0.455206 0.005665
v 0.036080 0.450934 0.033437
v -0.025328 0.537850 -0.002937
v -0.002990 0.540458 -0.018480
v -0.002000 0.500391 -0.026216
v 0.021218 0.535535 -0.020414
v 0.015430 0.450343 0.048679
v -0.019761 0.481351 0.052682
v -0.025211 0.455217 0.040882
v 0.020831 0.494351 0.057400
v 0.016965 0.534052 0.059217
v -0.017555 0.537597 0.047941
v -0.033378 0.535891 0.024417
v 0.014458 0.540578 0.047444
v -0.019777 0.543208 0.010053
v -0.016791 0.451697 0.030564
v -0.002954 0.585841 0.019387
v 0.009262 0.575318 0.020693
v -0.002609 0.601622 0.005962
v -0.013463 0.081662 0.005687
v -0.013517 0.354143 0.002655
v -0.006972 0.142796 0.000646
v -0.017796 0.263110 0.011133
v -0.009471 0.039641 -0.007057
v 0.002586 0.031958 -0.013396
v -0.000025 -0.253173 0.003349
v -0.008842 0.410089 0.016345
v 0.000075 0.520309 0.028328
v -0.005325 0.516208 0.020577
v 0.021981 -0.219740 0.001615
v 0.017017 0.028813 -0.004143
v 0.026939 -0.242203 0.011420
v 0.014434 -0.472048 0.017784
v 0.015817 0.569114 0.010230
v 0.009638 0.584367 0.003622
v 0.005334 0.519218 0.007858
v -0.003079 0.506953 0.012038
v -0.002861 0.377104 -0.003272
v -0.000384 0.301287 0.002022
v 0.003510 0.144866 0.001042
v -0.017088 0.296068 0.019669
v -0.013856 0.132668 0.019588
v -0.003665 0.030023 0.015818
v -0.002985 -0.228827 0.022385
v 0.006913 -0.240389 0.030905
v -0.016607 -0.449195 0.033055
v -0.009453 -0.481643 0.043178
v -0.019907 -0.572976 0.030191
v -0.007845 -0.582416 0.047405
v 0.014438 -0.183449 -0.003906
v -0.013106 -0.494664 0.015172
v 0.001780 -0.487071 0.010717
v -0.016359 -0.578077 0.016386
v 0.010292 -0.587852 0.007308
v 0.021040 -0.593616 0.026877
v 0.016734 -0.467028 0.031812
v 0.024891 -0.246832 0.024520
v 0.011419 0.036433 0.013295
v 0.013443 0.124678 0.010897
v 0.006266 0.148035 0.025953
v 0.006657 0.312294 0.011318
v 0.001215 0.300687 0.024144
v 0.006217 0.371517 0.017066
v 0.011479 -0.498986 0.041059
v 0.013793 -0.338174 0.036051
v -0.006546 0.141220 0.026820
v -0.009938 0.298289 0.025594
v -0.001266 0.381841 0.020284
v 0.002633 -0.478506 0.045427
v 0.014471 0.501275 0.024729
v 0.007543 0.510854 0.029542
v 0.015592 0.503354 0.014237
v 0.009320 0.395569 0.001128
v -0.005096 -0.247482 0.011711
v -0.015017 -0.413807 0.018597
vn 0.5619 -0.3088 -0.7674
vn 0.7615 -0.1256 -0.6359
vn 0.6449 -0.3067 -0.7000
vn -0.8104 -0.1494 -0.5665
vn 0.9795 0.1500 -0.1343
vn 0.9986 0.0472 -0.0236
vn 0.9992 -0.0314 0.0236
vn 0.9874 -0.1264 0.0948
vn 0.9764 -0.1805 0.1183
vn 0.9612 -0.2206 0.1654
vn -0.5759 0.1813 -0.7972
vn -0.5597 0.1655 -0.8120
vn -0.5438 0.0788 -0.8355
vn -0.2049 0.0551 -0.9772
vn -0.3455 -0.0863 -0.9344
vn -0.0788 -0.0867 -0.9931
vn 0.1657 0.0079 -0.9861
vn 0.0472 0.1335 -0.9899
vn -0.0396 0.1884 -0.9813
vn -0.1179 -0.2593 0.9586
vn -0.1581 -0.1738 0.9720
vn -0.2205 -0.3622 0.9056
vn -0.0786 -0.1101 0.9908
vn -0.2202 0.0315 0.9749
vn -0.2983 0.0942 0.9498
vn 0.6437 0.1334 -0.7536
vn 0.6995 0.1022 -0.7073
vn 0.8121 -0.0079 -0.5835
vn 0.7731 -0.2288 -0.5916
vn 0.6214 -0.0865 0.7787
vn 0.6764 0.0865 0.7314
vn 0.6611 0.0630 0.7476
vn 0.6127 -0.0864 0.7856
vn 0.5829 -0.2284 0.7798
vn 0.5825 -0.2279 0.7803
vn -0.8928 0.0079 0.4504
vn -0.8296 0.0790 0.5527
vn -0.9824 0.0708 0.1728
vn -0.9582 -0.0391 0.2835
vn -0.9934 -0.0316 0.1104
vn -0.9875 0.0475 -0.1501
vn -0.9508 0.1571 -0.2672
vn 0.1105 0.9475 0.3000
vn 0.3629 0.8442 0.3945
vn 0.2750 0.9428 0.1885
vn 0.1259 0.9915 -0.0315
vn -0.1417 0.9685 0.2047
vn -0.0708 0.8656 0.4957
vn 0.1494 0.9039 -0.4009
vn -0.0079 0.9848 -0.1733
vn -0.2609 0.9646 -0.0395
vn -0.3941 0.9142 0.0946
vn -0.3764 0.9020 -0.2117
vn 0.0236 -0.9927 -0.1182
vn 0.2985 -0.9505 -0.0864
vn 0.0707 -0.9970 -0.0313
vn -0.0315 -0.9994 0.0157
vn -0.1104 -0.9868 -0.1184
vn -0.0316 -0.9312 -0.3630
vn -0.1883 -0.9810 0.0470
vn -0.2519 -0.9605 0.1181
vn -0.2514 -0.9663 -0.0550
vn 0.4251 0.5826 0.6928
vn 0.4251 0.5825 0.6928
vn -0.5601 -0.0079 -0.8284
vn -0.8677 -0.0079 -0.4970
vn -0.4469 0.0391 -0.8937
vn -0.4661 -0.0079 -0.8847
vn -0.3302 -0.0315 -0.9434
vn -0.4238 0.0784 -0.9024
vn -0.8222 0.0079 0.5692
vn -0.8281 0.0237 0.5601
vn -0.8246 0.0157 0.5655
vn -0.8278 0.0394 0.5597
vn 0.8897 -0.0000 -0.4566
vn 0.9006 0.0079 -0.4346
vn 0.8368 -0.0553 -0.5447
vn 0.8267 -0.0630 -0.5590
vn 0.8507 0.4569 0.2600
vn 0.8142 0.5060 0.2847
vn 0.8277 0.4887 0.2759
vn 0.7951 0.5275 0.2992
vn -0.2754 -0.0472 -0.9602
vn -0.2515 -0.0472 -0.9667
vn -0.4089 -0.0237 -0.9123
vn -0.5204 0.0631 -0.8516
vn -0.5823 0.0630 -0.8105
vn -0.3762 -0.0468 -0.9254
vn -0.0315 -0.0000 -0.9995
vn 0.0235 0.0707 -0.9972
vn 0.0236 0.0628 -0.9977
vn 0.0158 0.1260 -0.9919
vn -0.9994 0.0314 0.0158
vn -0.9992 0.0236 -0.0315
vn -0.9696 0.0078 -0.2444
vn -0.9608 0.0315 -0.2756
vn -0.9955 0.0632 0.0711
vn -0.9967 0.0706 0.0392
vn -0.9981 0.0393 -0.0472
vn -0.9859 -0.0236 0.1656
vn -0.9356 -0.1022 0.3381
vn -0.9972 -0.0235 0.0707
vn -0.9268 -0.1021 0.3613
vn -0.6749 0.0158 0.7378
vn -0.6749 0.0157 0.7377
vn -0.6282 0.0314 0.7774
vn -0.6138 0.0629 0.7869
vn -0.6854 0.0709 0.7247
vn -0.7914 0.0157 0.6111
vn -0.8148 0.0079 0.5797
vn -0.8185 0.0079 0.5745
vn -0.2291 -0.0552 -0.9718
vn -0.2830 -0.0157 -0.9590
vn -0.2757 -0.0236 -0.9610
vn -0.3162 0.0079 -0.9487
vn -0.3233 0.0079 -0.9463
vn -0.4628 -0.8864 -0.0000
vn -0.6926 -0.7162 0.0866
vn -0.4783 -0.8782 -0.0000
vn -0.3696 -0.9280 -0.0472
vn -0.3623 -0.9294 -0.0709
vn 0.8895 0.0157 -0.4566
vn 0.8763 0.0158 -0.4815
vn 0.9835 0.0001 -0.1809
vn 0.9887 -0.0157 -0.1491
vn 0.9873 0.0158 0.1579
vn 0.9874 -0.0000 0.1580
vn 0.9558 0.0316 0.2923
vn 0.9517 0.0157 0.3067
vn 0.9052 -0.0001 0.4250
vn 0.9152 0.0237 0.4023
vn 0.9251 -0.0079 0.3796
vn 0.9153 0.0158 0.4024
vn 0.9286 -0.0315 0.3698
vn 0.8554 0.0079 0.5179
vn 0.8589 -0.0000 0.5122
vn 0.4501 0.0316 0.8924
vn 0.4654 0.0552 0.8834
vn 0.1809 -0.0314 0.9830
vn 0.1180 0.0629 0.9910
vn 0.1657 -0.0000 0.9862
vn 0.1025 -0.0630 0.9927
vn 0.0870 -0.0316 0.9957
vn 0.1182 0.0315 0.9925
vn 0.1336 0.0393 0.9903
vn 0.3300 -0.0471 0.9428
vn 0.4501 -0.0315 0.8924
vn 0.1490 0.0314 0.9883
vn -0.1974 0.0474 0.9792
vn -0.1885 0.0392 0.9813
vn 0.4313 -0.0233 0.9019
vn 0.5500 -0.0629 0.8328
vn 0.5588 -0.0708 0.8263
vn 0.8338 -0.0394 0.5506
vn 0.4708 -0.0785 0.8788
vn 0.6058 0.0394 0.7946
vn 0.8501 0.0866 0.5195
vn 0.8820 0.0788 0.4646
vn 0.9952 -0.0236 0.0948
vn 0.9978 -0.0471 -0.0472
vn 0.9928 -0.0473 -0.1103
vn 0.7953 -0.0001 -0.6062
vn 0.8437 -0.0946 -0.5283
vn 0.8268 -0.0630 -0.5590
vn 0.7985 0.1027 -0.5931
vn 0.7337 0.0395 -0.6784
vn 0.5597 0.0394 -0.8278
vn 0.5448 0.0552 -0.8368
vn 0.5510 -0.0157 -0.8344
vn 0.3625 -0.0631 -0.9299
vn 0.5120 -0.0315 -0.8584
vn 0.4564 0.0315 -0.8892
vn 0.4242 0.0628 -0.9034
vn 0.3793 -0.0316 -0.9247
vn 0.2922 0.0396 -0.9555
vn 0.4086 -0.0471 -0.9115
vn 0.4967 -0.0315 -0.8673
vn 0.5688 0.0395 -0.8216
vn 0.5990 -0.0867 -0.7960
vn 0.6123 -0.0942 -0.7850
vn -0.9713 -0.0236 -0.2368
vn -0.8966 0.0472 -0.4404
vn -0.8834 0.0552 -0.4654
vn -0.8641 -0.0236 -0.5028
vn -0.8554 -0.0001 -0.5179
vn -0.7636 0.0157 -0.6455
vn -0.7070 0.0157 -0.7070
vn -0.6466 -0.0946 0.7570
vn -0.6786 -0.0316 0.7338
vn -0.6607 -0.0708 0.7473
vn -0.6366 0.0393 0.7702
vn -0.6481 0.0632 0.7589
vn -0.3465 0.0394 0.9372
vn -0.5028 -0.0158 0.8643
vn -0.2127 -0.0316 0.9766
vn -0.0552 0.0868 0.9947
vn 0.0079 0.1337 0.9910
vn -0.9735 -0.0236 0.2277
vn -0.9928 0.0473 0.1103
vn -0.9787 -0.0079 0.2052
vn -0.9899 -0.0000 -0.1414
vn -0.9988 0.0472 0.0157
vn -0.9656 0.0236 -0.2591
vn -0.9654 0.0314 -0.2590
vt 0.831055 0.080078
vt 0.795898 0.079590
vt 0.826660 0.061035
vt 0.847656 0.103516
vt 0.860352 0.126953
vt 0.823242 0.136719
vt 0.889648 0.293945
vt 0.871094 0.266602
vt 0.909180 0.264648
vt 0.895508 0.233887
vt 0.942383 0.229492
vt 0.924805 0.206543
vt 0.790527 0.158203
vt 0.773438 0.137695
vt 0.803223 0.112793
vt 0.762695 0.115723
vt 0.908691 0.186035
vt 0.863770 0.178711
vt 0.879883 0.155273
vt 0.875488 0.213379
vt 0.843750 0.233887
vt 0.820801 0.205566
vt 0.912598 0.310547
vt 0.942383 0.271484
vt 0.962891 0.241211
vt 0.806641 0.181152
vt 0.735352 0.201660
vt 0.738281 0.184570
vt 0.768555 0.211914
vt 0.762695 0.243164
vt 0.705078 0.195312
vt 0.742188 0.262695
vt 0.718262 0.259277
vt 0.709473 0.230469
vt 0.689453 0.217773
vt 0.696777 0.243652
vt 0.809570 0.236328
vt 0.827637 0.249512
vt 0.824707 0.276855
vt 0.806641 0.293457
vt 0.768555 0.235352
vt 0.794434 0.225098
vt 0.778809 0.276367
vt 0.767578 0.290527
vt 0.756348 0.257812
vt 0.755859 0.303223
vt 0.770020 0.296875
vt 0.753906 0.322754
vt 0.437500 0.456055
vt 0.262207 0.677734
vt 0.398193 0.494141
vt 0.327148 0.607178
vt 0.441895 0.427734
vt 0.427246 0.424805
vt 0.594238 0.213379
vt 0.233765 0.748779
vt 0.160645 0.875854
vt 0.153687 0.862549
vt 0.097168 0.956512
vt 0.629883 0.263672
vt 0.495850 0.437012
vt 0.632812 0.247070
vt 0.733887 0.114746
vt 0.782227 0.301270
vt 0.772461 0.314941
vt 0.066223 0.967651
vt 0.067200 0.933350
vt 0.132690 0.850220
vt 0.151855 0.843628
vt 0.234009 0.694824
vt 0.286133 0.622314
vt 0.391602 0.487305
vt 0.313965 0.639160
vt 0.415283 0.504150
vt 0.473633 0.422852
vt 0.596191 0.240723
vt 0.609375 0.240234
vt 0.685547 0.106445
vt 0.706055 0.088379
vt 0.726562 0.021484
vt 0.745605 0.020508
vt 0.668945 0.242676
vt 0.502930 0.452148
vt 0.620605 0.288574
vt 0.760742 0.112793
vt 0.748535 0.111328
vt 0.803711 0.059082
vt 0.789551 0.039062
vt 0.744629 0.318848
vt 0.725586 0.308594
vt 0.726074 0.294434
vt 0.765625 0.290039
vt 0.748047 0.276855
vt 0.776855 0.024902
vt 0.723633 0.111328
vt 0.625977 0.241211
vt 0.481445 0.432617
vt 0.449463 0.510498
vt 0.424805 0.526611
vt 0.333008 0.673584
vt 0.329590 0.655273
vt 0.283936 0.731201
vt 0.729492 0.085449
vt 0.659668 0.180664
vt 0.418457 0.516113
vt 0.321533 0.646729
vt 0.264893 0.732422
vt 0.713379 0.093262
vt 0.194092 0.870117
vt 0.177246 0.872070
vt 0.122803 0.953674
vt 0.142700 0.958618
vt 0.202271 0.881958
vt 0.286621 0.772583
vt 0.350342 0.668213
vt 0.451172 0.531006
vt 0.208252 0.704102
vt 0.131958 0.821045
vt 0.072815 0.905396
vt 0.597656 0.222656
vt 0.687500 0.072266
vt 0.662598 0.123535
vt 0.718262 0.012695
s 1
usemtl M_Color_White
f 1/1/1 2/2/2 3/3/3
f 4/4/4 5/5/4 6/6/4
f 7/7/5 8/8/6 9/9/7
f 8/8/6 10/10/8 9/9/7
f 11/11/9 9/9/7 10/10/8
f 11/11/9 10/10/8 12/12/10
f 13/13/11 14/14/12 6/6/13
f 14/14/12 15/15/14 6/6/13
f 6/6/13 15/15/14 4/4/15
f 4/4/15 15/15/14 1/1/16
f 1/1/16 15/15/14 2/2/17
f 15/15/14 16/16/18 2/2/17
f 14/14/19 16/16/18 15/15/14
f 17/17/20 18/18/21 19/19/22
f 17/17/20 20/20/23 18/18/21
f 20/20/23 21/21/24 18/18/21
f 18/18/21 21/21/24 22/22/25
f 16/23/26 7/7/27 2/24/2
f 7/7/27 9/9/28 2/24/2
f 2/24/2 9/9/28 11/11/29
f 3/25/3 2/24/2 11/11/29
f 10/10/30 8/8/31 21/21/32
f 10/10/30 21/21/32 20/20/33
f 17/17/34 10/10/30 20/20/33
f 17/17/34 12/12/35 10/10/30
f 18/18/36 22/22/37 23/26/38
f 19/19/39 18/18/36 23/26/38
f 19/19/39 23/26/38 5/5/40
f 5/5/40 23/26/38 6/6/41
f 6/6/41 23/26/38 13/13/42
f 24/27/43 21/28/44 8/29/45
f 24/27/43 8/29/45 7/30/46
f 24/27/43 22/31/47 21/28/48
f 7/30/46 16/32/49 14/33/50
f 24/27/43 25/34/51 22/31/47
f 25/34/51 24/27/43 7/30/46
f 7/30/46 14/33/50 25/34/51
f 22/31/47 25/34/51 23/35/52
f 25/34/51 14/33/50 13/36/53
f 23/35/52 25/34/51 13/36/53
f 3/37/54 11/38/55 12/39/56
f 3/37/54 12/39/56 17/40/57
f 4/41/58 1/42/59 3/37/54
f 3/37/54 17/40/57 26/43/60
f 26/43/60 4/41/58 3/37/54
f 26/43/60 17/40/57 19/44/61
f 4/41/58 26/43/60 5/45/62
f 5/45/62 26/43/60 19/44/61
usemtl M_Color_Caramel
f 27/46/63 28/47/64 29/48/64
f 30/49/65 31/50/65 32/51/65
f 33/52/66 31/50/66 30/49/66
f 34/53/67 35/54/68 36/55/69
f 34/53/67 32/51/70 35/54/68
f 37/56/71 38/57/72 39/58/73
f 27/59/74 39/58/73 38/57/72
f 40/60/75 41/61/76 42/62/77
f 40/60/75 42/62/77 43/63/78
f 44/64/79 45/65/80 28/47/81
f 45/65/80 29/48/82 28/47/81
f 29/66/83 45/67/84 46/68/85
f 29/66/83 46/68/85 47/69/86
f 46/68/85 48/70/87 47/69/86
f 47/69/86 48/70/87 31/50/88
f 48/70/87 49/71/89 31/50/88
f 31/50/88 49/71/89 32/51/90
f 32/51/90 49/71/89 50/72/91
f 32/51/90 50/72/91 35/54/92
f 27/59/93 29/66/94 39/58/95
f 39/58/95 29/66/94 47/69/96
f 37/56/97 39/58/95 47/69/96
f 31/50/98 37/56/97 47/69/96
f 37/56/97 31/50/98 51/73/99
f 51/73/99 31/50/98 33/52/100
f 30/49/101 51/73/99 33/52/100
f 51/73/99 30/49/101 52/74/102
f 53/75/103 52/74/102 30/49/101
f 53/75/104 30/49/105 54/76/106
f 53/75/104 54/76/106 55/77/107
f 55/77/107 54/76/106 56/78/108
f 57/79/109 55/77/107 56/78/108
f 57/79/109 56/78/108 58/80/110
f 59/81/111 57/79/109 58/80/110
f 36/82/69 35/83/68 60/84/112
f 36/82/69 60/84/112 61/85/113
f 61/85/113 60/84/112 62/86/114
f 62/86/114 63/87/115 61/85/113
f 62/86/114 64/88/116 63/87/115
f 59/89/117 58/90/118 63/91/119
f 59/89/117 63/91/119 65/92/120
f 63/91/119 64/93/121 65/92/120
f 65/94/122 64/88/123 43/63/124
f 43/63/124 66/95/125 65/94/122
f 43/63/124 42/62/126 66/95/125
f 66/95/125 42/62/126 67/96/127
f 42/62/126 41/61/128 67/96/127
f 41/61/128 68/97/129 67/96/127
f 69/98/130 68/97/129 41/61/128
f 69/98/130 70/99/131 68/97/129
f 69/98/130 71/100/132 70/99/131
f 71/100/132 72/101/133 70/99/131
f 71/100/132 73/102/134 72/101/133
f 65/94/135 66/95/136 74/103/135
f 66/95/136 75/104/137 74/103/135
f 66/95/136 67/96/138 75/104/137
f 67/96/138 68/97/139 75/104/137
f 75/104/137 68/97/139 55/77/140
f 68/97/139 53/75/141 55/77/140
f 68/97/139 76/105/142 53/75/141
f 70/99/143 76/105/142 68/97/139
f 70/99/143 77/106/144 76/105/142
f 72/101/145 77/106/144 70/99/143
f 72/101/145 78/107/146 77/106/144
f 72/101/145 73/102/147 78/107/146
f 75/104/137 55/77/140 79/108/148
f 79/108/148 55/77/140 57/79/149
f 59/81/150 79/108/148 57/79/149
f 74/103/151 75/104/137 79/108/148
f 74/103/151 79/108/148 59/81/152
f 65/94/153 74/103/151 59/81/152
f 73/102/147 80/109/154 78/107/146
f 71/100/155 80/109/154 73/102/147
f 80/109/154 81/110/156 78/107/146
f 80/109/154 28/111/157 81/110/156
f 80/109/154 44/112/158 28/111/157
f 82/113/159 44/112/158 80/109/154
f 82/113/159 80/109/154 71/100/160
f 82/113/159 71/100/160 83/114/161
f 49/115/162 83/114/163 71/100/164
f 49/115/162 71/100/164 69/98/165
f 50/116/166 49/115/162 69/98/165
f 50/116/166 69/98/165 41/61/167
f 50/116/166 41/61/167 35/83/168
f 60/84/169 35/83/168 41/61/167
f 60/84/169 41/61/167 40/60/170
f 40/60/170 43/63/171 60/84/169
f 62/86/172 60/84/169 43/63/171
f 62/86/172 43/63/171 64/88/173
f 48/70/174 83/117/175 49/71/176
f 46/68/177 83/117/175 48/70/174
f 46/68/177 82/118/178 83/117/175
f 46/68/177 44/119/179 82/118/178
f 46/68/177 45/67/180 44/119/179
f 34/53/181 30/49/182 32/51/183
f 30/49/182 34/53/181 84/120/184
f 84/120/184 34/53/181 36/55/185
f 84/120/184 36/55/185 61/121/186
f 84/120/184 61/121/186 85/122/187
f 53/75/188 76/105/189 52/74/190
f 76/105/189 51/73/191 52/74/190
f 77/106/192 51/73/191 76/105/189
f 51/73/191 77/106/192 78/107/193
f 51/73/191 78/107/193 37/56/194
f 78/107/193 81/110/195 37/56/194
f 81/110/195 38/57/196 37/56/194
f 38/57/196 81/110/195 28/111/197
f 38/57/196 28/111/197 27/59/197
f 30/49/198 84/120/199 54/76/200
f 54/76/200 84/120/199 56/78/201
f 56/78/201 84/120/199 85/122/202
f 85/122/202 61/121/203 56/78/201
f 61/121/203 58/80/204 56/78/201
f 61/121/203 63/123/204 58/80/204
