# Blender 3.6.4
# www.blender.org
mtllib stump.mtl
o SM_Logging_Stump
v 0.205186 0.526567 1.117393
v 0.275921 -0.370778 1.333001
v 0.512504 -0.644801 1.421197
v 0.029704 -0.668087 1.574931
v 0.988845 -0.668858 1.076951
v 1.282767 -0.283507 0.944562
v 0.504481 -0.682233 -1.541815
v 0.054969 -0.655933 -1.446064
v -0.105851 -0.328451 -1.168955
v 0.199456 -0.767774 1.019243
v -0.828373 1.209548 -0.527441
v -0.605154 1.192638 -0.684149
v -0.784133 0.484554 -0.875288
v 0.211844 1.431733 1.004502
v -0.395426 1.362468 1.120292
v 0.016442 1.171217 -0.998853
v 0.372950 1.180361 -1.057495
v 0.362544 0.293171 -1.221254
v 0.833123 -0.322684 -0.900906
v 1.173896 -0.657976 -0.891160
v 0.833993 -0.707167 -0.957107
v -0.172602 -0.721755 -1.127855
v -0.573690 -0.658293 -1.304547
v -1.466697 -0.294900 0.150920
v -1.242744 -0.679027 0.160961
v -1.390152 -0.636412 0.485055
v -1.491068 -0.622238 -0.052971
v 1.619156 -0.662959 0.198038
v 1.376250 -0.411541 -0.539271
v -0.954103 1.327572 0.433538
v -0.984947 1.310477 0.071797
v -1.143451 0.581213 0.128149
v -1.025360 0.264447 0.569959
v -1.099307 -0.368868 0.992953
v -1.011585 -0.678655 1.083935
v -0.729824 0.562159 0.993304
v -0.615737 1.383403 0.795783
v 0.667253 1.379429 0.942740
v 0.844704 0.596367 0.911484
v 1.160179 0.530810 0.437765
v 0.969060 1.351480 0.502610
v -1.095979 -0.598835 -1.149989
v -1.308497 -0.665815 -0.603875
v 0.697632 1.215974 -0.529860
v 1.065566 1.302574 -0.165616
v 1.073643 0.622104 0.012003
v -0.342896 0.624410 -0.829057
v -0.978429 0.542249 -0.466432
v -1.072426 -0.326101 -0.841364
v -0.559304 -0.323983 1.254465
v -0.223320 0.646527 1.078035
v 0.399729 1.277270 -0.683071
v 0.422867 1.224222 -0.559651
v 0.640336 1.303721 -0.399991
v -0.774894 1.412138 0.264932
v -0.369815 1.402400 0.588997
v -0.667041 1.337280 0.239659
v 0.047461 1.198483 -0.690739
v 0.002063 1.467035 0.835015
v 0.249026 1.408355 0.680880
v -0.085127 1.351414 0.663380
v 0.551693 1.248286 -0.124250
v 0.503365 1.343143 0.091372
v 0.605971 1.359169 0.375280
v 0.558747 1.436537 0.569748
v 0.855303 1.325498 0.077648
v -0.542656 1.416718 0.614836
v -0.300943 1.338437 -0.020837
v -0.442367 1.372192 0.244911
v -0.273427 1.309713 0.060748
v -0.156574 1.284235 -0.149575
v -0.129703 1.392972 0.263895
v 0.076450 1.344669 0.218170
v -0.114652 1.320797 0.168532
v 0.400777 1.344958 0.279168
v 0.273140 1.390856 0.170603
v 0.203210 1.412939 0.421294
v 0.272788 1.348920 0.025321
v -0.273174 1.232586 -0.779067
v -0.684636 1.290560 -0.472692
v -0.795469 1.320572 -0.181438
v 0.219750 1.317234 -0.152689
v -0.007805 1.299959 -0.298670
v 0.345085 1.281541 -0.362432
v 0.709692 1.300859 -0.129765
v 0.029942 1.244226 -0.530461
v -0.290361 1.268368 -0.438538
v -0.490634 1.288156 -0.145117
v -0.465524 1.239181 -0.537315
v 0.117257 1.213017 -0.837878
v -0.697610 1.310122 -0.078137
v 0.638855 1.259394 -0.496167
vn -0.1023 0.2283 0.9682
vn 0.5206 0.2366 0.8203
vn 0.5747 -0.1575 0.8031
vn -0.1341 0.5996 -0.7889
vn -0.1341 0.5997 -0.7889
vn 0.8425 -0.4252 0.3307
vn 0.8425 -0.4252 0.3306
vn -0.5203 0.3468 -0.7804
vn 0.1581 0.1186 0.9803
vn 0.1735 0.1183 0.9777
vn 0.2444 0.1735 0.9540
vn -0.1654 0.1812 -0.9694
vn 0.1653 0.1417 -0.9760
vn 0.3776 -0.1574 -0.9125
vn -0.8176 -0.4874 -0.3066
vn -0.8196 0.0788 -0.5675
vn -0.6701 -0.3784 0.6386
vn -0.6701 -0.3785 0.6386
vn -0.6550 -0.3629 0.6628
vn -0.6549 -0.3630 0.6628
vn 0.7499 -0.3868 0.5368
vn 0.7499 -0.3867 0.5368
vn 0.9045 -0.2124 -0.3697
vn -0.9706 0.1816 0.1577
vn -0.9730 0.2197 0.0707
vn -0.9203 0.1966 0.3382
vn -0.8641 0.2828 0.4164
vn -0.8579 0.2995 0.4175
vn -0.8752 0.1575 0.4574
vn -0.8901 0.1418 0.4332
vn -0.8443 -0.0869 0.5287
vn -0.8589 0.2601 0.4412
vn -0.7869 0.2045 0.5822
vn -0.7935 0.2435 0.5577
vn -0.7353 0.1344 0.6643
vn 0.2120 0.0864 0.9735
vn 0.3232 0.1734 0.9303
vn 0.3632 0.2685 0.8922
vn 0.4242 0.2435 0.8722
vn 0.8442 0.2918 0.4497
vn 0.8874 0.3299 0.3220
vn 0.9186 0.2984 0.2591
vn 0.8189 0.2598 0.5118
vn 0.8253 0.1572 0.5424
vn 0.8182 0.1652 0.5507
vn -0.1655 -0.9694 -0.1813
vn -0.1180 -0.9840 -0.1338
vn -0.1025 -0.9936 -0.0473
vn -0.0392 -0.9967 -0.0706
vn -0.1105 -0.9938 0.0079
vn -0.2277 -0.9737 -0.0000
vn -0.1180 -0.9518 -0.2832
vn -0.0000 -0.9947 -0.1026
vn 0.0550 -0.9977 -0.0392
vn -0.0869 -0.9951 0.0474
vn -0.1807 -0.9824 0.0472
vn 0.0079 -0.9969 0.0785
vn -0.0631 -0.9855 0.1577
vn 0.1576 -0.9850 -0.0709
vn 0.0863 -0.9963 0.0001
vn 0.1184 -0.9868 0.1105
vn 0.1027 -0.9716 0.2133
vn 0.7639 0.2201 -0.6067
vn 0.8443 0.0868 -0.5287
vn 0.7240 0.1967 -0.6611
vn 0.7071 0.2750 -0.6515
vn 0.8104 0.2203 -0.5429
vn 0.8709 0.0706 -0.4864
vn 0.6323 0.2450 -0.7350
vn 0.5581 0.3617 -0.7468
vn 0.5285 0.5206 -0.6705
vn 0.9142 0.3625 -0.1813
vn 0.9757 0.2046 0.0787
vn 0.9179 0.3640 -0.1583
vn 0.9412 0.3136 -0.1254
vn 0.9922 0.1181 0.0394
vn 0.9798 0.0632 0.1897
vn 0.9388 0.0947 0.3313
vn 0.0236 0.2517 -0.9675
vn -0.2445 0.1734 -0.9540
vn 0.0242 0.2441 -0.9694
vn -0.1021 0.3842 -0.9176
vn -0.4503 0.0158 -0.8927
vn -0.4626 0.0313 -0.8860
vn -0.4176 0.1812 -0.8904
vn -0.2756 0.2992 -0.9135
vn -0.1725 0.5732 -0.8010
vn -0.4100 0.2286 -0.8830
vn -0.9276 0.2437 -0.2830
vn -0.8871 0.3061 -0.3454
vn -0.8663 0.3072 -0.3938
vn -0.9040 0.2280 -0.3615
vn -0.9428 0.1886 -0.2750
vn -0.9290 0.1811 -0.3228
vn -0.8721 0.2436 -0.4243
vn -0.8956 0.3299 -0.2985
vn -0.8690 0.3871 -0.3081
vn -0.8915 0.3708 -0.2603
vn -0.4416 0.1577 0.8832
vn -0.4342 0.1263 0.8919
vn -0.3540 0.2045 0.9126
vn -0.3158 0.2999 0.9002
vn -0.2369 0.1263 0.9633
vn -0.1184 0.1657 0.9790
vn -0.1181 0.0394 0.9922
vn -0.1341 -0.0947 0.9864
vn -0.5662 0.7156 0.4090
vn 0.4166 0.7624 -0.4952
vn -0.2054 0.8846 0.4186
vn -0.1182 0.8508 -0.5121
vn 0.2921 0.7183 -0.6315
vn 0.5354 0.8109 -0.2362
vn -0.2525 0.8762 -0.4105
vn -0.3937 0.8190 -0.4174
vn -0.3618 0.8338 -0.4169
vn -0.2286 0.8830 -0.4100
vn 0.0711 0.9955 -0.0632
vn 0.0629 0.9910 -0.1180
vn 0.0472 0.9686 -0.2441
vn 0.0315 0.9536 -0.2995
vn 0.4641 0.8731 0.1494
vn 0.4801 0.8657 0.1417
vn 0.4734 0.8680 0.1499
vn 0.4641 0.8731 0.1495
vn 0.1577 0.7966 -0.5836
vn 0.0549 0.8007 -0.5965
vn 0.2052 0.7969 -0.5682
vn 0.3146 0.7787 -0.5428
vn 0.3790 0.9238 -0.0553
vn 0.4485 0.8812 -0.1495
vn 0.3304 0.9438 0.0080
vn 0.5047 0.8280 -0.2445
vn -0.0235 0.9972 -0.0707
vn 0.2050 0.9776 -0.0473
vn 0.1026 0.9947 -0.0078
vn 0.1413 0.9897 0.0236
vn 0.1647 0.9810 0.1021
vn 0.1731 0.9838 -0.0472
vn 0.0394 0.9939 -0.1025
vn -0.0472 0.9899 -0.1336
vn -0.0788 0.9844 -0.1575
vn -0.2531 0.7988 -0.5457
vn -0.2509 0.7919 -0.5567
vn -0.2287 0.8754 -0.4259
vn -0.3402 0.8703 -0.3560
vn -0.3305 0.8578 -0.3935
vn -0.3636 0.9009 -0.2370
vn -0.3458 0.9276 -0.1415
vn -0.3466 0.9375 0.0314
vn -0.3386 0.9369 0.0866
vn -0.2052 0.9706 0.1262
vn -0.1569 0.9806 0.1177
vn -0.1259 0.9768 0.1733
vn -0.0945 0.9690 0.2285
vn -0.0552 0.9618 0.2681
vn 0.0236 0.9997 0.0001
vn 0.0315 0.9857 -0.1656
vn -0.0078 0.9998 -0.0157
vn 0.0472 0.9919 -0.1180
vn -0.1178 0.9893 -0.0864
vn -0.0393 0.9989 0.0237
vn -0.2277 0.9734 -0.0236
vn -0.2049 0.9696 -0.1339
vn -0.2752 0.9358 -0.2202
vn -0.0079 0.9754 -0.2202
vn -0.0709 0.9922 -0.1024
vn -0.0552 0.9932 -0.1024
vn 0.0079 0.9930 -0.1182
vn 0.1332 0.9169 -0.3762
vn -0.0867 0.9931 -0.0788
vn 0.0550 0.9895 -0.1335
vn -0.0394 0.9931 -0.1103
vn 0.0236 0.9897 -0.1414
vn -0.1100 0.9429 -0.3143
vn -0.0316 0.9558 -0.2923
vn -0.0078 0.9969 -0.0784
vn -0.1576 0.9773 0.1419
vn -0.2592 0.9658 -0.0000
vn -0.1257 0.9819 -0.1414
vn -0.0315 0.9950 -0.0948
vn 0.0079 0.9658 -0.2591
vn -0.0315 0.9844 -0.1732
vn 0.0157 0.9909 -0.1337
vn -0.0631 0.9544 -0.2918
vn -0.1100 0.9826 -0.1494
vn 0.1414 0.9899 -0.0000
vn 0.1101 0.9908 0.0786
vn 0.1808 0.9824 -0.0472
vn -0.0709 0.9895 -0.1259
vn -0.1339 0.9771 -0.1655
vn -0.0788 0.9685 -0.2362
vn -0.0237 0.9712 -0.2369
vn 0.1963 0.9734 -0.1178
vn 0.1969 0.9766 -0.0867
vn 0.5046 0.8516 -0.1419
vn 0.5448 0.8290 -0.1263
vn -0.1026 0.9867 -0.1263
vn 0.0236 0.9997 0.0079
vn 0.1025 0.9936 -0.0473
vn -0.0393 0.9346 -0.3535
vn 0.1804 0.9805 0.0785
vn 0.2438 0.9672 0.0708
vn 0.3315 0.8996 -0.2842
vn 0.4087 0.8568 -0.3145
vn 0.3218 0.9107 -0.2591
vn 0.4232 0.8311 -0.3607
vn 0.5975 0.7234 -0.3459
vn 0.5509 0.7791 -0.2991
vt 0.121582 0.304199
vt 0.050995 0.221680
vt 0.051483 0.175781
vt 0.000127 0.219727
vt 0.108337 0.135742
vt 0.162720 0.164062
vt 0.455322 0.000488
vt 0.507324 0.000977
vt 0.536133 0.068359
vt 0.012413 0.177246
vt 0.621582 0.254883
vt 0.591797 0.245117
vt 0.612793 0.153320
vt 0.830078 0.442383
vt 0.787109 0.387207
vt 0.901367 0.368164
vt 0.514648 0.233887
vt 0.473633 0.234375
vt 0.463623 0.125000
vt 0.388428 0.083496
vt 0.342285 0.028809
vt 0.381104 0.018555
vt 0.552734 0.000488
vt 0.602539 0.012207
vt 0.786133 0.139160
vt 0.820801 0.091797
vt 0.842773 0.125488
vt 0.783691 0.086914
vt 0.212769 0.072754
vt 0.309326 0.083496
vt 0.712402 0.320312
vt 0.679199 0.296387
vt 0.723145 0.220703
vt 0.789551 0.228027
vt 0.866211 0.198242
vt 0.905273 0.172852
vt 0.821289 0.289551
vt 0.751953 0.360840
vt 0.228760 0.350586
vt 0.189087 0.388672
vt 0.183716 0.261719
vt 0.242554 0.218262
vt 0.280029 0.314453
vt 0.357178 0.574463
vt 0.338867 0.635742
vt 0.315674 0.519531
vt 0.295654 0.664307
vt 0.236206 0.478027
vt 0.273193 0.466309
vt 0.313721 0.707031
vt 0.293945 0.757080
vt 0.215820 0.752686
vt 0.130859 0.442871
vt 0.213745 0.442871
vt 0.061005 0.566162
vt 0.016724 0.513428
vt 0.187866 0.782471
vt 0.052734 0.757812
vt 0.005337 0.640869
vt 0.000127 0.572266
vt 0.406250 0.253418
vt 0.350098 0.275391
vt 0.296875 0.209473
vt 0.554688 0.165527
vt 0.661621 0.032227
vt 0.667480 0.184082
vt 0.677734 0.086914
vt 0.725586 0.053711
vt 0.920898 0.247559
vt 0.999512 0.260742
vt 0.857422 0.338379
vt 0.594238 0.544922
vt 0.574707 0.541504
vt 0.560547 0.509033
vt 0.441162 0.651367
vt 0.417480 0.592773
vt 0.449951 0.636475
vt 0.580078 0.584717
vt 0.395508 0.547119
vt 0.423096 0.516357
vt 0.418701 0.558594
vt 0.526855 0.508789
vt 0.499023 0.507324
vt 0.470703 0.481445
vt 0.443848 0.478027
vt 0.515625 0.462891
vt 0.408691 0.611328
vt 0.490479 0.607910
vt 0.453125 0.612549
vt 0.480713 0.597656
vt 0.511230 0.591064
vt 0.455566 0.576660
vt 0.467529 0.552734
vt 0.475586 0.575195
vt 0.473145 0.509277
vt 0.479004 0.531494
vt 0.446777 0.528809
vt 0.500488 0.538330
vt 0.389404 0.515625
vt 0.410645 0.462891
vt 0.471191 0.442871
vt 0.551270 0.452148
vt 0.583008 0.503906
vt 0.579590 0.622314
vt 0.615723 0.597412
vt 0.562012 0.659912
vt 0.537598 0.681152
vt 0.533691 0.660889
vt 0.495605 0.667480
vt 0.462158 0.681152
vt 0.420898 0.667725
vt 0.389160 0.616943
vt 0.357422 0.582275
vt 0.520508 0.548340
vt 0.532715 0.578369
vt 0.548340 0.540771
vt 0.530762 0.489746
vt 0.559082 0.581299
vt 0.539062 0.614990
vt 0.501953 0.631592
vt 0.545898 0.636230
vt 0.601562 0.580566
vt 0.633301 0.557129
vt 0.487305 0.651123
vt 0.574707 0.510498
s 1
usemtl M_Color_Clay.001
f 1/1/1 2/2/1 3/3/1
f 2/2/2 1/1/2 4/4/2
f 3/3/3 5/5/3 6/6/3
f 7/7/4 8/8/5 9/9/4
f 2/2/6 4/4/7 10/10/6
f 11/11/8 12/12/8 13/13/8
f 14/14/9 15/15/10 1/16/11
f 16/17/12 17/18/12 18/19/12
f 19/20/13 20/21/13 21/22/13
f 9/9/14 22/23/14 23/24/14
f 24/25/15 25/26/15 26/27/15
f 9/9/16 8/8/16 22/23/16
f 2/2/17 10/10/17 3/3/18
f 24/25/19 27/28/19 25/26/20
f 6/6/21 5/5/22 28/29/21
f 29/30/23 28/29/23 20/21/23
f 30/31/24 31/32/25 32/33/26
f 30/31/24 32/33/26 33/34/27
f 32/33/26 24/25/28 33/34/27
f 33/34/27 24/25/28 34/35/29
f 24/25/28 26/27/30 34/35/29
f 34/35/29 26/27/30 35/36/31
f 36/37/32 33/34/27 34/35/29
f 37/38/33 33/34/27 36/37/32
f 15/15/34 37/38/33 36/37/32
f 37/38/33 30/31/35 33/34/27
f 38/39/36 14/40/9 1/1/11
f 39/41/37 38/39/36 1/1/11
f 3/3/38 39/41/37 1/1/11
f 6/6/39 39/41/37 3/3/38
f 40/42/40 6/6/41 28/29/42
f 6/6/41 40/42/40 39/41/43
f 40/42/40 41/43/44 39/41/43
f 39/41/43 41/43/44 38/39/45
f 42/44/46 23/45/47 43/46/48
f 43/46/48 23/45/47 22/47/49
f 25/48/50 27/49/51 43/46/48
f 25/48/50 43/46/48 22/47/49
f 22/47/49 8/50/52 7/51/53
f 22/47/49 7/51/53 21/52/54
f 35/53/55 26/54/56 25/48/50
f 10/55/57 25/48/50 22/47/49
f 10/55/57 35/53/55 25/48/50
f 22/47/49 21/52/54 10/55/57
f 10/55/57 4/56/58 35/53/55
f 21/52/54 20/57/59 28/58/60
f 21/52/54 28/58/60 10/55/57
f 28/58/60 5/59/61 10/55/57
f 5/59/61 3/60/62 10/55/57
f 18/19/63 17/18/64 44/61/65
f 18/19/63 44/61/65 19/20/66
f 7/7/67 18/19/63 19/20/66
f 19/20/66 21/22/68 7/7/67
f 19/20/66 44/61/65 45/62/69
f 19/20/66 45/62/69 29/30/70
f 29/30/70 20/21/71 19/20/66
f 29/30/72 46/63/73 28/29/74
f 28/29/74 46/63/73 40/42/75
f 46/63/73 41/43/76 40/42/75
f 46/63/73 45/62/77 41/43/76
f 45/62/77 46/63/73 29/30/78
f 12/12/79 47/64/80 13/13/81
f 13/13/81 47/64/80 42/65/82
f 12/12/83 16/17/84 47/64/80
f 16/17/84 18/19/85 47/64/80
f 47/64/80 9/9/86 42/65/82
f 47/64/80 18/19/85 9/9/86
f 9/9/86 23/24/87 42/65/82
f 9/9/86 18/19/85 7/7/88
f 32/33/89 27/28/90 24/25/91
f 32/33/89 48/66/92 27/28/90
f 31/32/93 48/66/92 32/33/89
f 31/32/93 11/11/94 48/66/92
f 11/11/94 13/13/95 48/66/92
f 48/66/92 49/67/96 27/28/90
f 48/66/92 13/13/95 49/67/96
f 49/67/96 43/68/97 27/28/90
f 13/13/95 42/65/98 49/67/96
f 49/67/96 42/65/98 43/68/97
f 34/35/99 35/36/100 50/69/101
f 50/69/101 35/36/100 4/70/102
f 36/37/103 34/35/99 50/69/101
f 1/16/104 50/69/101 4/70/102
f 50/69/101 51/71/105 36/37/103
f 1/16/104 51/71/105 50/69/101
f 15/15/106 36/37/103 51/71/105
f 15/15/106 51/71/105 1/16/104
usemtl M_Color_Tawny.001
f 52/72/107 53/73/107 54/74/107
f 55/75/108 56/76/108 57/77/108
f 52/72/109 58/78/109 53/73/109
f 59/79/110 60/80/110 61/81/110
f 56/76/111 59/79/111 61/81/111
f 62/82/112 63/83/112 64/84/112
f 65/85/113 66/86/114 64/84/115
f 65/85/113 64/84/115 60/80/116
f 55/75/117 67/87/118 56/76/119
f 59/79/120 56/76/119 67/87/118
f 68/88/121 69/89/122 70/90/123
f 71/91/124 68/88/121 70/90/123
f 72/92/125 73/93/126 74/94/127
f 70/90/128 72/92/125 74/94/127
f 75/95/129 76/96/130 77/97/131
f 78/98/132 76/96/130 75/95/129
f 60/80/133 59/79/134 14/99/135
f 60/80/133 14/99/135 65/85/136
f 14/99/135 38/100/137 65/85/136
f 65/85/136 38/100/137 41/101/138
f 66/86/139 65/85/136 41/101/138
f 66/86/139 41/101/138 45/102/140
f 66/86/139 45/102/140 44/103/141
f 79/104/142 16/105/143 12/106/144
f 79/104/142 12/106/144 11/107/145
f 80/108/146 79/104/142 11/107/145
f 80/108/146 11/107/145 81/109/147
f 81/109/147 11/107/145 31/110/148
f 81/109/147 31/110/148 55/75/149
f 55/75/149 31/110/148 30/111/150
f 55/75/149 30/111/150 67/87/151
f 67/87/151 30/111/150 37/112/152
f 67/87/151 37/112/152 15/113/153
f 59/79/154 67/87/151 15/113/153
f 59/79/154 15/113/153 14/99/155
f 78/98/156 75/95/157 63/83/158
f 75/95/157 64/84/159 63/83/158
f 77/97/160 64/84/159 75/95/157
f 77/97/160 60/80/161 64/84/159
f 77/97/160 61/81/162 60/80/161
f 73/93/163 61/81/162 77/97/160
f 76/96/164 73/93/163 77/97/160
f 73/93/163 76/96/164 78/98/165
f 74/94/166 73/93/163 78/98/165
f 71/91/167 70/90/168 74/94/166
f 74/94/166 78/98/165 71/91/167
f 78/98/165 63/83/169 62/82/170
f 82/114/171 71/91/167 78/98/165
f 82/114/171 78/98/165 62/82/170
f 82/114/171 83/115/172 71/91/167
f 82/114/171 62/82/170 84/116/173
f 83/115/172 82/114/171 84/116/173
f 84/116/173 54/74/174 53/73/175
f 84/116/173 53/73/175 58/78/176
f 84/116/173 62/82/170 54/74/177
f 62/82/170 85/117/178 54/74/177
f 62/82/170 64/84/179 85/117/178
f 85/117/178 66/86/180 54/74/177
f 64/84/179 66/86/180 85/117/178
f 83/115/172 84/116/173 86/118/181
f 84/116/173 58/78/176 86/118/181
f 83/115/172 86/118/181 87/119/182
f 87/119/182 86/118/181 58/78/176
f 83/115/172 87/119/182 71/91/167
f 71/91/167 87/119/182 88/120/183
f 71/91/167 88/120/183 68/88/184
f 68/88/184 88/120/183 69/89/185
f 87/119/182 58/78/176 89/121/186
f 88/120/183 87/119/182 89/121/186
f 89/121/186 58/78/176 79/104/187
f 89/121/186 79/104/187 80/108/188
f 88/120/183 89/121/186 80/108/188
f 58/78/176 90/122/189 79/104/187
f 58/78/176 52/72/190 90/122/189
f 90/122/189 52/72/190 17/123/191
f 90/122/189 17/123/191 16/105/192
f 79/104/181 90/122/189 16/105/192
f 88/120/183 80/108/188 91/124/193
f 91/124/193 80/108/188 81/109/194
f 91/124/193 81/109/194 55/75/195
f 91/124/193 55/75/195 57/77/196
f 88/120/183 91/124/193 57/77/197
f 88/120/183 57/77/197 69/89/185
f 69/89/185 57/77/197 56/76/198
f 69/89/185 56/76/198 72/92/199
f 70/90/200 69/89/185 72/92/199
f 72/92/199 56/76/198 61/81/201
f 72/92/199 61/81/201 73/93/202
f 52/72/203 44/103/204 17/123/205
f 92/125/206 44/103/204 52/72/203
f 52/72/203 54/74/207 92/125/206
f 66/86/208 44/103/204 92/125/206
f 92/125/206 54/74/207 66/86/208
