# Blender 3.6.4
# www.blender.org
mtllib table.mtl
o SM_Mining_Table
v 0.341778 0.517542 0.380290
v 0.341778 -0.207495 0.485652
v 0.341778 0.517542 0.485652
v 0.341778 -0.207495 0.380290
v 0.447140 0.517542 0.380290
v 0.447140 -0.207495 0.380290
v 0.447140 0.517542 0.485652
v 0.447140 -0.207495 0.485652
v -0.423544 0.517542 0.380290
v -0.423544 -0.207495 0.485652
v -0.423544 0.517542 0.485652
v -0.423544 -0.207495 0.380290
v -0.318182 0.517542 0.380290
v -0.318182 -0.207495 0.380290
v -0.318182 0.517542 0.485652
v -0.318182 -0.207495 0.485652
v -0.423544 0.517542 -0.493829
v -0.423544 -0.207495 -0.388467
v -0.423544 0.517542 -0.388467
v -0.423544 -0.207495 -0.493829
v -0.318182 0.517542 -0.493829
v -0.318182 -0.207495 -0.493829
v -0.318182 0.517542 -0.388467
v -0.318182 -0.207495 -0.388467
v 0.341778 0.517542 -0.493829
v 0.341778 -0.207495 -0.388467
v 0.341778 0.517542 -0.388467
v 0.341778 -0.207495 -0.493829
v 0.447140 0.517542 -0.493829
v 0.447140 -0.207495 -0.493829
v 0.447140 0.517542 -0.388467
v 0.447140 -0.207495 -0.388467
v 0.566690 0.516363 0.718155
v 0.459430 0.516363 -0.696044
v 0.566690 0.516363 -0.704989
v 0.459430 0.516363 0.730967
v 0.456853 0.546957 -0.689562
v 0.570706 0.549898 0.722364
v 0.570706 0.553709 -0.698507
v 0.456853 0.543145 0.735175
v -0.555116 0.516363 0.712125
v -0.424984 0.516363 -0.700472
v -0.437247 0.516363 0.719615
v -0.550907 0.516363 -0.708403
v -0.546890 0.544093 -0.705079
v -0.551100 0.544093 0.710561
v -0.424984 0.544093 -0.697148
v -0.437247 0.544093 0.718051
v -0.310286 0.516363 0.676949
v -0.417545 0.516363 -0.737250
v -0.310286 0.516363 -0.746195
v -0.417545 0.516363 0.689761
v -0.420123 0.546957 -0.730768
v -0.306269 0.549898 0.681158
v -0.306269 0.553709 -0.739712
v -0.420123 0.543145 0.693969
v 0.317997 0.516363 0.743885
v 0.448129 0.516363 -0.668713
v 0.435867 0.516363 0.751374
v 0.322206 0.516363 -0.676644
v 0.326223 0.544093 -0.673319
v 0.322013 0.544093 0.742320
v 0.448129 0.544093 -0.665388
v 0.435867 0.544093 0.749810
v -0.011631 0.517171 0.495650
v -0.011631 0.517170 -0.502663
v -0.011631 0.433953 -0.502662
v -0.011631 0.433953 0.495650
v 0.016099 0.517171 0.495650
v 0.011493 0.433953 -0.502662
v 0.016099 0.517170 -0.502663
v 0.011493 0.433953 0.495651
v 0.518102 0.516590 0.527497
v -0.517187 0.516590 0.530210
v -0.509409 0.431341 0.530210
v 0.510325 0.420276 0.527497
v 0.518102 0.516590 0.487884
v -0.509409 0.431341 0.487884
v -0.517186 0.516590 0.487884
v 0.510325 0.420276 0.487884
v -0.517187 0.516808 -0.495400
v 0.510325 0.431559 -0.495400
v 0.518102 0.516808 -0.495400
v -0.509409 0.417007 -0.495400
v -0.517187 0.516808 -0.531510
v 0.510325 0.431559 -0.531510
v -0.509409 0.417007 -0.531510
v 0.518102 0.516808 -0.531510
v -0.176530 0.516363 0.712054
v -0.290383 0.516363 -0.699882
v -0.199919 0.516363 -0.708475
v -0.290383 0.516363 0.712054
v -0.297322 0.540716 -0.689781
v -0.172903 0.542174 0.718441
v -0.196292 0.535015 -0.698374
v -0.297322 0.547875 0.718441
v 0.186812 0.516363 0.706758
v 0.299342 0.516363 -0.696885
v 0.317911 0.516363 0.718920
v 0.198293 0.516363 -0.707909
v 0.191593 0.553795 -0.713770
v 0.180111 0.548610 0.702647
v 0.293489 0.553795 -0.702746
v 0.312058 0.548610 0.714810
v -0.173032 0.516363 0.701925
v -0.056602 0.516363 -0.713770
v -0.056602 0.516363 0.706758
v -0.191161 0.516363 -0.722367
v -0.187533 0.544093 -0.730226
v -0.169405 0.553832 0.694845
v -0.059179 0.544093 -0.721629
v -0.059179 0.553832 0.699679
v 0.057724 0.516363 0.712125
v 0.187856 0.516363 -0.700472
v 0.175593 0.516363 0.719615
v 0.061933 0.516363 -0.708403
v 0.065950 0.544093 -0.705079
v 0.061740 0.544093 0.710561
v 0.187856 0.544093 -0.697148
v 0.175593 0.544093 0.718051
v 0.053747 0.516363 0.702320
v -0.053512 0.516363 -0.711878
v 0.053747 0.516363 -0.720823
v -0.053512 0.516363 0.715132
v -0.056090 0.546957 -0.705396
v 0.057764 0.549898 0.706529
v 0.057764 0.553709 -0.714341
v -0.056090 0.543145 0.719341
vn -1.0000 -0.0000 -0.0000
vn -0.0000 -0.0000 -1.0000
vn 1.0000 -0.0000 -0.0000
vn -0.0000 -0.0000 1.0000
vn -0.0000 -1.0000 -0.0000
vn -0.0000 1.0000 -0.0000
vn -0.0550 0.9985 -0.0000
vn 0.9939 -0.1105 -0.0000
vn 0.9939 -0.1104 -0.0000
vn 0.1178 -0.1418 0.9829
vn 0.1180 -0.1415 0.9829
vn 0.1179 -0.1416 0.9829
vn -0.9962 -0.0869 -0.0000
vn -0.9962 -0.0870 -0.0000
vn -0.0868 0.1893 -0.9781
vn 1.0000 -0.0000 0.0079
vn 1.0000 0.0001 0.0080
vn 1.0000 -0.0001 0.0080
vn -0.0628 0.0628 0.9960
vn -0.0628 0.0627 0.9961
vn -0.0627 0.0628 0.9961
vn -0.0627 0.0627 0.9961
vn -0.9899 0.1414 -0.0000
vn -0.9900 0.1414 -0.0000
vn 0.0630 0.1180 -0.9910
vn 0.0629 0.1180 -0.9910
vn 0.0629 0.1179 -0.9910
vn 0.1177 -0.1420 0.9828
vn -0.9899 0.1415 -0.0001
vn 0.9985 -0.0553 -0.0000
vn -0.0079 -1.0000 -0.0000
vn 0.9969 -0.0785 -0.0000
vn -0.9955 -0.0948 -0.0000
vn 0.0158 -0.9999 -0.0000
vn 0.0157 -0.9999 -0.0000
vn 0.9955 -0.0948 -0.0000
vn -0.9969 -0.0785 -0.0000
vn -0.9969 -0.0784 -0.0000
vn 0.0472 0.9989 -0.0079
vn 0.0472 0.9989 -0.0078
vn 0.9873 -0.1580 -0.0158
vn -0.0079 -0.2202 0.9754
vn -0.0079 -0.2203 0.9754
vn -0.9697 -0.2444 -0.0000
vn -0.0709 0.4175 -0.9059
vn -0.0710 0.4175 -0.9059
vn 0.9861 0.1657 -0.0158
vn 0.9861 0.1656 -0.0158
vn -0.0941 0.1099 0.9895
vn -0.0942 0.1099 0.9895
vn -0.9820 -0.1886 -0.0079
vn 0.1103 -0.1339 -0.9848
vn 0.1103 -0.1340 -0.9848
vn -0.0000 1.0000 -0.0079
vn -0.0000 1.0000 -0.0080
vn 0.9969 0.0785 -0.0000
vn -0.0394 0.1884 0.9813
vn -0.0393 0.1884 0.9813
vn -0.9938 0.1104 0.0158
vn 0.0629 -0.2752 -0.9593
vn 0.0629 -0.2753 -0.9593
vn -0.0628 0.0628 0.9961
vt 0.502441 0.254883
vt 0.539551 0.000977
vt 0.539551 0.254883
vt 0.502441 0.000977
vt 0.773438 0.913269
vt 0.810059 0.659668
vt 0.810059 0.913269
vt 0.773438 0.659668
vt 0.617676 0.254883
vt 0.654785 0.000977
vt 0.654785 0.254883
vt 0.618164 0.000977
vt 0.732910 0.254883
vt 0.770020 0.000977
vt 0.770020 0.254883
vt 0.733398 0.000977
vt 0.499756 0.464844
vt 0.499756 0.427734
vt 0.536621 0.427734
vt 0.536621 0.464844
vt 0.503418 0.504883
vt 0.540527 0.541748
vt 0.503418 0.541748
vt 0.540527 0.504883
vt 0.850098 0.882568
vt 0.886719 0.628906
vt 0.886719 0.882568
vt 0.850098 0.628906
vt 0.848633 0.254883
vt 0.885254 0.000977
vt 0.885254 0.254883
vt 0.848633 0.000977
vt 0.541016 0.254883
vt 0.578125 0.000977
vt 0.578125 0.254883
vt 0.541016 0.000977
vt 0.579590 0.254883
vt 0.616211 0.000977
vt 0.616211 0.254883
vt 0.579590 0.000977
vt 0.536621 0.502930
vt 0.499756 0.502930
vt 0.499756 0.466309
vt 0.536621 0.466309
vt 0.538086 0.464844
vt 0.538086 0.427734
vt 0.574707 0.464844
vt 0.574707 0.427734
vt 0.734863 0.913269
vt 0.771973 0.659668
vt 0.771973 0.913269
vt 0.734863 0.659668
vt 0.850586 0.625977
vt 0.887207 0.372559
vt 0.887207 0.625977
vt 0.850586 0.372559
vt 0.810059 0.254883
vt 0.847168 0.000977
vt 0.846680 0.254883
vt 0.810059 0.000977
vt 0.656250 0.254883
vt 0.693359 0.000977
vt 0.693359 0.254883
vt 0.656250 0.000977
vt 0.578613 0.543213
vt 0.578613 0.580078
vt 0.541992 0.580078
vt 0.541992 0.543213
vt 0.538086 0.466309
vt 0.574707 0.502930
vt 0.538086 0.502930
vt 0.574707 0.466309
vt 0.886719 0.254883
vt 0.923828 0.000977
vt 0.923828 0.254883
vt 0.886719 0.000977
vt 0.811523 0.913269
vt 0.848633 0.659668
vt 0.848633 0.913269
vt 0.811523 0.659668
vt 0.771484 0.254883
vt 0.808594 0.000977
vt 0.808594 0.254883
vt 0.771484 0.000977
vt 0.694824 0.254883
vt 0.731445 0.000977
vt 0.731445 0.254883
vt 0.694824 0.000977
vt 0.540527 0.543213
vt 0.540527 0.580078
vt 0.503418 0.580078
vt 0.503418 0.543213
vt 0.541992 0.541748
vt 0.541992 0.504883
vt 0.578613 0.541748
vt 0.578613 0.504883
vt 0.005215 0.707764
vt 0.500000 0.670166
vt 0.502930 0.707764
vt 0.000734 0.670166
vt 0.499268 0.627441
vt 0.005222 0.587646
vt 0.501953 0.587646
vt 0.000734 0.627441
vt 0.497803 0.959869
vt 0.002207 0.946716
vt 0.500000 0.946716
vt 0.000734 0.958557
vt 0.580078 0.516602
vt 0.618652 0.504883
vt 0.620605 0.516602
vt 0.581055 0.507080
vt 0.499023 0.974091
vt 0.002182 0.983521
vt 0.000734 0.974091
vt 0.501465 0.984840
vt 0.614258 0.440918
vt 0.576172 0.427734
vt 0.616211 0.427734
vt 0.576660 0.438965
vt 0.003233 0.236328
vt 0.497559 0.280273
vt 0.000734 0.277832
vt 0.500000 0.236328
vt 0.498291 0.459473
vt 0.003010 0.456543
vt 0.495850 0.416504
vt 0.000734 0.416504
vt 0.997070 0.269043
vt 0.501465 0.259766
vt 0.998535 0.259766
vt 0.501953 0.269043
vt 0.596191 0.412598
vt 0.635742 0.403320
vt 0.635742 0.412598
vt 0.594727 0.403320
vt 0.997070 0.917542
vt 0.501465 0.927307
vt 0.501953 0.917542
vt 0.998535 0.927307
vt 0.627441 0.606201
vt 0.584961 0.596436
vt 0.627930 0.596436
vt 0.583496 0.606201
vt 0.005215 0.785767
vt 0.500000 0.748291
vt 0.502930 0.785767
vt 0.000734 0.748291
vt 0.499268 0.586182
vt 0.005222 0.546143
vt 0.501953 0.546143
vt 0.000734 0.586182
vt 0.497803 0.930664
vt 0.002207 0.917542
vt 0.500000 0.917542
vt 0.000734 0.929321
vt 0.576172 0.496582
vt 0.614746 0.484863
vt 0.616211 0.496582
vt 0.576660 0.487305
vt 0.996582 0.961334
vt 0.499756 0.970749
vt 0.498291 0.961334
vt 0.999023 0.972092
vt 0.614258 0.455566
vt 0.576172 0.442383
vt 0.616211 0.442383
vt 0.576660 0.453613
vt 0.003233 0.281738
vt 0.497559 0.326172
vt 0.000734 0.323242
vt 0.500000 0.281738
vt 0.498291 0.415039
vt 0.003010 0.412598
vt 0.495850 0.372559
vt 0.000734 0.372559
vt 0.997070 0.280273
vt 0.501465 0.270508
vt 0.998535 0.270508
vt 0.501953 0.280273
vt 0.585449 0.591309
vt 0.625488 0.581543
vt 0.625488 0.591309
vt 0.583984 0.581543
vt 0.997070 0.946716
vt 0.501465 0.956543
vt 0.501953 0.946747
vt 0.998535 0.956543
vt 0.624512 0.568848
vt 0.582031 0.559082
vt 0.624512 0.559082
vt 0.580078 0.568848
vt 0.499756 0.372559
vt 0.849121 0.372559
vt 0.849121 0.401855
vt 0.499756 0.401855
vt 0.499268 0.658203
vt 0.848633 0.628906
vt 0.848633 0.658203
vt 0.499268 0.628906
vt 0.498047 0.362793
vt 0.847168 0.370605
vt 0.498047 0.370605
vt 0.847168 0.362793
vt 0.617676 0.457031
vt 0.625977 0.427734
vt 0.627441 0.457031
vt 0.617676 0.427734
vt 0.849121 0.426270
vt 0.499756 0.426270
vt 0.849121 0.416504
vt 0.499756 0.416504
vt 0.609863 0.547119
vt 0.611328 0.518066
vt 0.619629 0.547119
vt 0.619629 0.518066
vt 0.362793 0.857300
vt 0.000734 0.857300
vt 0.003454 0.827515
vt 0.360107 0.823608
vt 0.859863 0.327637
vt 0.500488 0.357422
vt 0.498047 0.327637
vt 0.857422 0.361328
vt 0.501465 0.298340
vt 0.858398 0.312988
vt 0.501465 0.312988
vt 0.858398 0.299316
vt 0.580078 0.551758
vt 0.594238 0.518066
vt 0.594238 0.551758
vt 0.580078 0.518066
vt 0.501465 0.296875
vt 0.863770 0.282715
vt 0.863770 0.296875
vt 0.501465 0.281738
vt 0.525879 0.611328
vt 0.525879 0.581543
vt 0.540527 0.611328
vt 0.540527 0.581543
vt 0.000734 0.822144
vt 0.360107 0.792236
vt 0.362793 0.822144
vt 0.003454 0.787231
vt 0.364258 0.787231
vt 0.723633 0.817017
vt 0.367188 0.822144
vt 0.726562 0.787231
vt 0.364258 0.830566
vt 0.721191 0.843140
vt 0.364258 0.843140
vt 0.721191 0.830566
vt 0.511719 0.611328
vt 0.524414 0.581543
vt 0.524414 0.611328
vt 0.511719 0.581543
vt 0.364258 0.857300
vt 0.726562 0.844604
vt 0.726562 0.857300
vt 0.364258 0.844604
vt 0.595703 0.552979
vt 0.608398 0.518066
vt 0.608398 0.552979
vt 0.595703 0.518066
vt 0.000734 0.668701
vt 0.495361 0.637207
vt 0.497803 0.668701
vt 0.001390 0.628906
vt 0.494141 0.362793
vt 0.000734 0.327637
vt 0.496338 0.327637
vt 0.001443 0.371094
vt 0.504883 0.974091
vt 0.970215 0.982681
vt 0.502930 0.982681
vt 0.973145 0.974564
vt 0.593262 0.414062
vt 0.552734 0.403320
vt 0.592285 0.404785
vt 0.549805 0.414062
vt 0.493408 0.963776
vt 0.002970 0.972626
vt 0.000734 0.961334
vt 0.496826 0.972626
vt 0.540039 0.620361
vt 0.508301 0.621826
vt 0.540527 0.613037
vt 0.504883 0.613037
vt 0.005589 0.097168
vt 0.496094 0.143066
vt 0.000734 0.143066
vt 0.500488 0.107910
vt 0.500000 0.095703
vt 0.004616 0.095703
vt 0.496582 0.060059
vt 0.000734 0.049316
vt 0.002199 0.899597
vt 0.496094 0.888184
vt 0.498047 0.901428
vt 0.000734 0.888123
vt 0.545898 0.414551
vt 0.501953 0.403320
vt 0.548340 0.403320
vt 0.499756 0.414551
vt 0.002195 0.858765
vt 0.495605 0.872070
vt 0.000734 0.870239
vt 0.497803 0.858765
vt 0.614258 0.470215
vt 0.578613 0.470215
vt 0.612305 0.457031
vt 0.576172 0.457031
vt 0.002943 0.000977
vt 0.497559 0.047852
vt 0.000734 0.041504
vt 0.500977 0.000977
vt 0.500977 0.189453
vt 0.002424 0.183105
vt 0.498047 0.144531
vt 0.000734 0.144531
vt 0.003120 0.916077
vt 0.497559 0.906311
vt 0.500000 0.916077
vt 0.000734 0.902893
vt 0.542969 0.594727
vt 0.582520 0.581543
vt 0.581543 0.594727
vt 0.541992 0.581543
vt 0.003195 0.873535
vt 0.499023 0.886658
vt 0.000734 0.886658
vt 0.501465 0.876892
vt 0.589355 0.621094
vt 0.542969 0.611084
vt 0.587891 0.611084
vt 0.541992 0.621094
vt 0.003233 0.190918
vt 0.497559 0.234863
vt 0.000734 0.231934
vt 0.500000 0.190918
vt 0.498291 0.503418
vt 0.003010 0.500488
vt 0.495850 0.460938
vt 0.000734 0.460938
vt 0.997070 0.326172
vt 0.501465 0.316406
vt 0.998535 0.316406
vt 0.501953 0.326172
vt 0.591797 0.620605
vt 0.631836 0.611084
vt 0.631836 0.620605
vt 0.590820 0.611084
vt 0.997070 0.935486
vt 0.501465 0.945251
vt 0.501953 0.935486
vt 0.998535 0.945251
vt 0.624512 0.580078
vt 0.582031 0.570312
vt 0.624512 0.570312
vt 0.580078 0.580078
vt 0.005215 0.746826
vt 0.500000 0.709229
vt 0.502930 0.746826
vt 0.000734 0.709229
vt 0.499268 0.544678
vt 0.005222 0.504883
vt 0.501953 0.504883
vt 0.000734 0.544678
vt 0.497803 0.945251
vt 0.002207 0.932129
vt 0.500000 0.932129
vt 0.000734 0.943939
vt 0.576172 0.483398
vt 0.614746 0.471680
vt 0.616211 0.483398
vt 0.576660 0.474121
vt 0.499023 0.986313
vt 0.002182 0.995728
vt 0.000734 0.986313
vt 0.501465 0.997057
vt 0.580078 0.609619
vt 0.541992 0.596436
vt 0.582031 0.596436
vt 0.542480 0.607178
s 1
usemtl M_Color_Oak.005
f 1/1/1 2/2/1 3/3/1
f 2/2/1 1/1/1 4/4/1
f 5/5/2 4/6/2 1/7/2
f 4/6/2 5/5/2 6/8/2
f 7/9/3 6/10/3 5/11/3
f 6/10/3 7/9/3 8/12/3
f 3/13/4 8/14/4 7/15/4
f 8/14/4 3/13/4 2/16/4
f 8/17/5 2/18/5 4/19/5
f 8/17/5 4/19/5 6/20/5
f 3/21/6 5/22/6 1/23/6
f 5/22/6 3/21/6 7/24/6
f 9/25/1 10/26/1 11/27/1
f 10/26/1 9/25/1 12/28/1
f 13/29/2 12/30/2 9/31/2
f 12/30/2 13/29/2 14/32/2
f 15/33/3 14/34/3 13/35/3
f 14/34/3 15/33/3 16/36/3
f 11/37/4 16/38/4 15/39/4
f 16/38/4 11/37/4 10/40/4
f 16/41/5 10/42/5 12/43/5
f 16/41/5 12/43/5 14/44/5
f 9/45/6 11/46/6 13/47/6
f 13/47/6 11/46/6 15/48/6
f 17/49/1 18/50/1 19/51/1
f 18/50/1 17/49/1 20/52/1
f 21/53/2 20/54/2 17/55/2
f 20/54/2 21/53/2 22/56/2
f 23/57/3 22/58/3 21/59/3
f 22/58/3 23/57/3 24/60/3
f 19/61/4 24/62/4 23/63/4
f 24/62/4 19/61/4 18/64/4
f 24/65/5 18/66/5 20/67/5
f 24/65/5 20/67/5 22/68/5
f 19/69/6 21/70/6 17/71/6
f 21/70/6 19/69/6 23/72/6
f 25/73/1 26/74/1 27/75/1
f 26/74/1 25/73/1 28/76/1
f 29/77/2 28/78/2 25/79/2
f 28/78/2 29/77/2 30/80/2
f 31/81/3 30/82/3 29/83/3
f 30/82/3 31/81/3 32/84/3
f 27/85/4 32/86/4 31/87/4
f 32/86/4 27/85/4 26/88/4
f 32/89/5 26/90/5 28/91/5
f 32/89/5 28/91/5 30/92/5
f 25/93/6 27/94/6 29/95/6
f 29/95/6 27/94/6 31/96/6
f 33/97/5 34/98/5 35/99/5
f 34/98/5 33/97/5 36/100/5
f 37/101/7 38/102/7 39/103/7
f 38/102/7 37/101/7 40/104/7
f 39/105/8 33/106/9 35/107/9
f 33/106/9 39/105/8 38/108/8
f 40/109/10 33/110/11 38/111/11
f 33/110/11 40/109/10 36/112/12
f 37/113/13 36/114/14 40/115/14
f 36/114/14 37/113/13 34/116/14
f 35/117/15 37/118/15 39/119/15
f 37/118/15 35/117/15 34/120/15
f 41/121/5 42/122/5 43/123/5
f 42/122/5 41/121/5 44/124/5
f 45/125/6 46/126/6 47/127/6
f 47/127/6 46/126/6 48/128/6
f 47/129/16 43/130/17 42/131/18
f 43/130/17 47/129/16 48/132/17
f 46/133/19 43/134/20 48/135/21
f 43/134/20 46/133/19 41/136/22
f 45/137/23 41/138/23 46/139/23
f 41/138/23 45/137/23 44/140/24
f 42/141/25 45/142/26 47/143/26
f 45/142/26 42/141/25 44/144/27
f 49/145/5 50/146/5 51/147/5
f 50/146/5 49/145/5 52/148/5
f 53/149/7 54/150/7 55/151/7
f 54/150/7 53/149/7 56/152/7
f 55/153/9 49/154/9 51/155/9
f 49/154/9 55/153/9 54/156/8
f 56/157/28 49/158/11 54/159/11
f 49/158/11 56/157/28 52/160/12
f 53/161/14 52/162/14 56/163/14
f 52/162/14 53/161/14 50/164/14
f 51/165/15 53/166/15 55/167/15
f 53/166/15 51/165/15 50/168/15
f 57/169/5 58/170/5 59/171/5
f 58/170/5 57/169/5 60/172/5
f 61/173/6 62/174/6 63/175/6
f 63/175/6 62/174/6 64/176/6
f 63/177/18 59/178/17 58/179/18
f 59/178/17 63/177/18 64/180/17
f 62/181/19 59/182/20 64/183/22
f 59/182/20 62/181/19 57/184/19
f 61/185/23 57/186/23 62/187/29
f 57/186/23 61/185/23 60/188/23
f 58/189/25 61/190/26 63/191/25
f 61/190/26 58/189/25 60/192/26
f 65/193/1 66/194/1 67/195/1
f 65/193/1 67/195/1 68/196/1
f 69/197/30 70/198/30 71/199/30
f 70/198/30 69/197/30 72/200/30
f 68/201/5 70/202/5 72/203/5
f 70/202/5 68/201/5 67/204/5
f 65/205/4 72/206/4 69/207/4
f 72/206/4 65/205/4 68/208/4
f 66/209/6 65/210/6 71/211/6
f 71/211/6 65/210/6 69/212/6
f 71/213/2 70/214/2 66/215/2
f 66/215/2 70/214/2 67/216/2
f 73/217/4 74/218/4 75/219/4
f 73/217/4 75/219/4 76/220/4
f 77/221/2 78/222/2 79/223/2
f 78/222/2 77/221/2 80/224/2
f 78/225/31 76/226/31 75/227/31
f 76/226/31 78/225/31 80/228/31
f 73/229/32 80/230/32 77/231/32
f 80/230/32 73/229/32 76/232/32
f 79/233/6 73/234/6 77/235/6
f 73/234/6 79/233/6 74/236/6
f 79/237/33 78/238/33 74/239/33
f 74/239/33 78/238/33 75/240/33
f 81/241/4 82/242/4 83/243/4
f 82/242/4 81/241/4 84/244/4
f 85/245/2 86/246/2 87/247/2
f 86/246/2 85/245/2 88/248/2
f 87/249/34 82/250/34 84/251/35
f 82/250/34 87/249/34 86/252/34
f 83/253/36 86/254/36 88/255/36
f 86/254/36 83/253/36 82/256/36
f 85/257/6 83/258/6 88/259/6
f 83/258/6 85/257/6 81/260/6
f 85/261/37 84/262/37 81/263/38
f 84/262/37 85/261/37 87/264/37
f 89/265/5 90/266/5 91/267/5
f 90/266/5 89/265/5 92/268/5
f 93/269/39 94/270/40 95/271/39
f 94/270/40 93/269/39 96/272/40
f 89/273/41 95/274/41 94/275/41
f 95/274/41 89/273/41 91/276/41
f 94/277/42 92/278/43 89/279/43
f 92/278/43 94/277/42 96/280/43
f 93/281/44 92/282/44 96/283/44
f 92/282/44 93/281/44 90/284/44
f 91/285/45 90/286/46 95/287/45
f 93/288/45 95/287/45 90/286/46
f 97/289/5 98/290/5 99/291/5
f 98/290/5 97/289/5 100/292/5
f 101/293/6 102/294/6 103/295/6
f 103/295/6 102/294/6 104/296/6
f 104/297/47 98/298/48 103/299/47
f 98/298/48 104/297/47 99/300/47
f 104/301/49 97/302/50 99/303/50
f 97/302/50 104/301/49 102/304/50
f 102/305/51 100/306/51 97/307/51
f 100/306/51 102/305/51 101/308/51
f 98/309/52 100/310/52 103/311/52
f 101/312/53 103/311/52 100/310/52
f 105/313/5 106/314/5 107/315/5
f 106/314/5 105/313/5 108/316/5
f 109/317/54 110/318/54 111/319/54
f 111/319/54 110/318/54 112/320/55
f 112/321/56 106/322/56 111/323/56
f 106/322/56 112/321/56 107/324/56
f 110/325/57 107/326/58 112/327/58
f 107/326/58 110/325/57 105/328/58
f 110/329/59 108/330/59 105/331/59
f 108/330/59 110/329/59 109/332/59
f 106/333/60 109/334/61 111/335/60
f 109/334/61 106/333/60 108/336/60
f 113/337/5 114/338/5 115/339/5
f 114/338/5 113/337/5 116/340/5
f 117/341/6 118/342/6 119/343/6
f 119/343/6 118/342/6 120/344/6
f 119/345/16 115/346/17 114/347/18
f 115/346/17 119/345/16 120/348/17
f 118/349/19 115/350/20 120/351/22
f 115/350/20 118/349/19 113/352/62
f 117/353/24 113/354/23 118/355/23
f 113/354/23 117/353/24 116/356/24
f 114/357/25 117/358/26 119/359/26
f 117/358/26 114/357/25 116/360/27
f 121/361/5 122/362/5 123/363/5
f 122/362/5 121/361/5 124/364/5
f 125/365/7 126/366/7 127/367/7
f 126/366/7 125/365/7 128/368/7
f 127/369/9 121/370/9 123/371/9
f 121/370/9 127/369/9 126/372/8
f 128/373/28 121/374/11 126/375/11
f 121/374/11 128/373/28 124/376/12
f 125/377/14 124/378/14 128/379/14
f 124/378/14 125/377/14 122/380/14
f 123/381/15 125/382/15 127/383/15
f 125/382/15 123/381/15 122/384/15
